<svg width="720" height="618" viewBox="0 0 720 618" fill="none" xmlns="http://www.w3.org/2000/svg">
<rect width="720" height="618" fill="white"/>
<rect y="27" width="720" height="55" fill="#DBDBDB"/>
<path d="M155.821 55.4731C155.821 59.5405 154.802 62.7021 152.762 64.958C150.734 67.2139 147.857 68.3418 144.132 68.3418C140.361 68.3418 137.461 67.2253 135.433 64.9922C133.417 62.7477 132.408 59.5633 132.408 55.439C132.408 51.3146 133.422 48.1473 135.45 45.937C137.49 43.7267 140.395 42.6216 144.166 42.6216C147.88 42.6216 150.751 43.7438 152.779 45.9883C154.807 48.2327 155.821 51.3944 155.821 55.4731ZM136.749 55.4731C136.749 58.5493 137.37 60.8849 138.612 62.48C139.854 64.0636 141.694 64.8555 144.132 64.8555C146.559 64.8555 148.387 64.0693 149.618 62.4971C150.86 60.9248 151.48 58.5835 151.48 55.4731C151.48 52.4084 150.865 50.0841 149.635 48.5005C148.416 46.9168 146.593 46.125 144.166 46.125C141.716 46.125 139.865 46.9168 138.612 48.5005C137.37 50.0841 136.749 52.4084 136.749 55.4731ZM170.245 52.1406H165.631V68H161.598V52.1406H158.487V50.2607L161.598 49.0303V47.7998C161.598 45.5667 162.122 43.9147 163.17 42.8438C164.218 41.7614 165.819 41.2202 167.972 41.2202C169.385 41.2202 170.775 41.4538 172.142 41.9209L171.083 44.9629C170.091 44.6439 169.146 44.4844 168.246 44.4844C167.334 44.4844 166.668 44.7692 166.246 45.3389C165.836 45.8971 165.631 46.7402 165.631 47.8682V49.0986H170.245V52.1406ZM182.943 52.1406H178.329V68H174.295V52.1406H171.185V50.2607L174.295 49.0303V47.7998C174.295 45.5667 174.819 43.9147 175.868 42.8438C176.916 41.7614 178.517 41.2202 180.67 41.2202C182.083 41.2202 183.473 41.4538 184.84 41.9209L183.78 44.9629C182.789 44.6439 181.843 44.4844 180.943 44.4844C180.032 44.4844 179.365 44.7692 178.944 45.3389C178.534 45.8971 178.329 46.7402 178.329 47.8682V49.0986H182.943V52.1406ZM190.189 68H186.173V49.0986H190.189V68ZM185.934 44.0913C185.934 43.3735 186.127 42.821 186.515 42.4336C186.913 42.0462 187.477 41.8525 188.207 41.8525C188.913 41.8525 189.46 42.0462 189.847 42.4336C190.246 42.821 190.445 43.3735 190.445 44.0913C190.445 44.7749 190.246 45.3161 189.847 45.7148C189.46 46.1022 188.913 46.2959 188.207 46.2959C187.477 46.2959 186.913 46.1022 186.515 45.7148C186.127 45.3161 185.934 44.7749 185.934 44.0913ZM203.553 68.3418C200.694 68.3418 198.517 67.5101 197.025 65.8467C195.544 64.1719 194.803 61.7736 194.803 58.6519C194.803 55.4731 195.578 53.0293 197.127 51.3203C198.688 49.6113 200.938 48.7568 203.878 48.7568C205.872 48.7568 207.666 49.1271 209.261 49.8677L208.048 53.0977C206.35 52.4368 204.949 52.1064 203.844 52.1064C200.574 52.1064 198.939 54.2769 198.939 58.6177C198.939 60.7368 199.343 62.3319 200.152 63.4028C200.973 64.4624 202.169 64.9922 203.741 64.9922C205.53 64.9922 207.222 64.5479 208.817 63.6592V67.1626C208.099 67.5841 207.33 67.8861 206.51 68.0684C205.701 68.2507 204.715 68.3418 203.553 68.3418ZM221.515 68.3418C218.575 68.3418 216.274 67.4873 214.61 65.7783C212.958 64.0579 212.132 61.6938 212.132 58.686C212.132 55.5985 212.901 53.1717 214.439 51.4058C215.978 49.6398 218.091 48.7568 220.78 48.7568C223.275 48.7568 225.246 49.5145 226.693 51.0298C228.14 52.5451 228.863 54.63 228.863 57.2847V59.4551H216.268C216.325 61.2894 216.821 62.7021 217.755 63.6934C218.689 64.6732 220.005 65.1631 221.703 65.1631C222.819 65.1631 223.856 65.0605 224.813 64.8555C225.781 64.639 226.818 64.2858 227.923 63.7959V67.0601C226.944 67.5272 225.952 67.8576 224.95 68.0513C223.947 68.245 222.802 68.3418 221.515 68.3418ZM220.78 51.7988C219.504 51.7988 218.478 52.2033 217.704 53.0122C216.94 53.8211 216.485 55.0003 216.336 56.5498H224.916C224.893 54.9889 224.517 53.8097 223.788 53.0122C223.058 52.2033 222.056 51.7988 220.78 51.7988ZM258.446 68L255.951 61.0615H246.397L243.954 68H239.647L248.995 42.9121H253.438L262.787 68H258.446ZM254.874 57.541L252.533 50.7393C252.362 50.2835 252.123 49.5658 251.815 48.5859C251.519 47.6061 251.314 46.8883 251.2 46.4326C250.892 47.834 250.442 49.3664 249.85 51.0298L247.594 57.541H254.874ZM278.988 68L278.424 65.522H278.219C277.66 66.3993 276.863 67.0885 275.826 67.5898C274.801 68.0911 273.627 68.3418 272.306 68.3418C270.016 68.3418 268.307 67.7721 267.179 66.6328C266.051 65.4935 265.487 63.7674 265.487 61.4546V49.0986H269.537V60.7539C269.537 62.2008 269.833 63.2889 270.426 64.0181C271.018 64.7358 271.947 65.0947 273.211 65.0947C274.898 65.0947 276.134 64.5934 276.92 63.5908C277.717 62.5768 278.116 60.8849 278.116 58.5151V49.0986H282.149V68H278.988ZM294.916 65.0947C295.895 65.0947 296.875 64.9409 297.855 64.6333V67.6582C297.411 67.8519 296.835 68.0114 296.129 68.1367C295.434 68.2734 294.71 68.3418 293.958 68.3418C290.153 68.3418 288.25 66.3366 288.25 62.3262V52.1406H285.67V50.3633L288.438 48.8936L289.806 44.8945H292.284V49.0986H297.667V52.1406H292.284V62.2578C292.284 63.2262 292.523 63.944 293.001 64.4111C293.491 64.8669 294.129 65.0947 294.916 65.0947ZM318.414 58.5151C318.414 61.6027 317.622 64.0124 316.039 65.7441C314.455 67.4759 312.25 68.3418 309.425 68.3418C307.659 68.3418 306.098 67.943 304.742 67.1455C303.386 66.348 302.344 65.203 301.615 63.7104C300.886 62.2179 300.521 60.4862 300.521 58.5151C300.521 55.4504 301.307 53.0578 302.879 51.3374C304.452 49.617 306.668 48.7568 309.527 48.7568C312.262 48.7568 314.426 49.6398 316.021 51.4058C317.617 53.1603 318.414 55.5301 318.414 58.5151ZM304.657 58.5151C304.657 62.8787 306.269 65.0605 309.493 65.0605C312.683 65.0605 314.278 62.8787 314.278 58.5151C314.278 54.1971 312.672 52.0381 309.459 52.0381C307.773 52.0381 306.548 52.5964 305.785 53.7129C305.033 54.8294 304.657 56.4302 304.657 58.5151ZM338.973 68H334.94V56.3447C334.94 54.8978 334.667 53.8211 334.12 53.1147C333.573 52.397 332.718 52.0381 331.556 52.0381C330.007 52.0381 328.867 52.5451 328.138 53.5591C327.42 54.5617 327.062 56.2365 327.062 58.5835V68H323.045V49.0986H326.19L326.754 51.5767H326.959C327.483 50.6766 328.241 49.9816 329.232 49.4917C330.235 49.0018 331.334 48.7568 332.53 48.7568C335.436 48.7568 337.361 49.748 338.307 51.7305H338.58C339.138 50.7962 339.924 50.0671 340.938 49.543C341.952 49.0189 343.115 48.7568 344.425 48.7568C346.681 48.7568 348.321 49.3265 349.347 50.4658C350.383 51.6051 350.902 53.3426 350.902 55.6782V68H346.886V56.3447C346.886 54.8978 346.607 53.8211 346.048 53.1147C345.501 52.397 344.647 52.0381 343.485 52.0381C341.924 52.0381 340.779 52.528 340.05 53.5078C339.332 54.4762 338.973 55.9688 338.973 57.9854V68ZM368.333 68L367.53 65.3682H367.394C366.482 66.5189 365.565 67.305 364.642 67.7266C363.719 68.1367 362.534 68.3418 361.087 68.3418C359.23 68.3418 357.778 67.8405 356.729 66.8379C355.693 65.8353 355.174 64.4168 355.174 62.5825C355.174 60.6343 355.898 59.1646 357.345 58.1733C358.792 57.1821 360.996 56.641 363.958 56.5498L367.223 56.4473V55.439C367.223 54.2313 366.938 53.3312 366.368 52.7388C365.81 52.1349 364.938 51.833 363.753 51.833C362.785 51.833 361.856 51.9754 360.968 52.2603C360.079 52.5451 359.225 52.8812 358.404 53.2686L357.105 50.3975C358.131 49.862 359.253 49.4575 360.472 49.1841C361.691 48.8993 362.842 48.7568 363.924 48.7568C366.328 48.7568 368.14 49.2809 369.359 50.3291C370.589 51.3773 371.205 53.0236 371.205 55.2681V68H368.333ZM362.352 65.2656C363.81 65.2656 364.978 64.8612 365.855 64.0522C366.744 63.2319 367.188 62.0869 367.188 60.6172V58.9766L364.762 59.0791C362.87 59.1475 361.492 59.4665 360.626 60.0361C359.771 60.5944 359.344 61.4546 359.344 62.6167C359.344 63.4598 359.595 64.1149 360.096 64.582C360.597 65.0378 361.349 65.2656 362.352 65.2656ZM383.851 65.0947C384.831 65.0947 385.811 64.9409 386.791 64.6333V67.6582C386.346 67.8519 385.771 68.0114 385.064 68.1367C384.369 68.2734 383.646 68.3418 382.894 68.3418C379.089 68.3418 377.186 66.3366 377.186 62.3262V52.1406H374.605V50.3633L377.374 48.8936L378.741 44.8945H381.219V49.0986H386.603V52.1406H381.219V62.2578C381.219 63.2262 381.458 63.944 381.937 64.4111C382.427 64.8669 383.065 65.0947 383.851 65.0947ZM394.601 68H390.584V49.0986H394.601V68ZM390.345 44.0913C390.345 43.3735 390.539 42.821 390.926 42.4336C391.325 42.0462 391.889 41.8525 392.618 41.8525C393.325 41.8525 393.871 42.0462 394.259 42.4336C394.658 42.821 394.857 43.3735 394.857 44.0913C394.857 44.7749 394.658 45.3161 394.259 45.7148C393.871 46.1022 393.325 46.2959 392.618 46.2959C391.889 46.2959 391.325 46.1022 390.926 45.7148C390.539 45.3161 390.345 44.7749 390.345 44.0913ZM417.125 58.5151C417.125 61.6027 416.333 64.0124 414.75 65.7441C413.166 67.4759 410.961 68.3418 408.136 68.3418C406.37 68.3418 404.809 67.943 403.453 67.1455C402.097 66.348 401.055 65.203 400.326 63.7104C399.597 62.2179 399.232 60.4862 399.232 58.5151C399.232 55.4504 400.018 53.0578 401.59 51.3374C403.163 49.617 405.379 48.7568 408.238 48.7568C410.973 48.7568 413.137 49.6398 414.732 51.4058C416.327 53.1603 417.125 55.5301 417.125 58.5151ZM403.368 58.5151C403.368 62.8787 404.98 65.0605 408.204 65.0605C411.394 65.0605 412.989 62.8787 412.989 58.5151C412.989 54.1971 411.383 52.0381 408.17 52.0381C406.484 52.0381 405.259 52.5964 404.496 53.7129C403.744 54.8294 403.368 56.4302 403.368 58.5151ZM438.385 68H434.352V56.3789C434.352 54.9206 434.055 53.8325 433.463 53.1147C432.882 52.397 431.953 52.0381 430.677 52.0381C428.98 52.0381 427.738 52.5394 426.952 53.542C426.166 54.5446 425.772 56.2251 425.772 58.5835V68H421.756V49.0986H424.901L425.465 51.5767H425.67C426.24 50.6766 427.049 49.9816 428.097 49.4917C429.145 49.0018 430.307 48.7568 431.583 48.7568C436.118 48.7568 438.385 51.064 438.385 55.6782V68ZM467.899 61.2153C467.899 63.437 467.096 65.1802 465.489 66.4448C463.883 67.7095 461.667 68.3418 458.841 68.3418C456.016 68.3418 453.703 67.9032 451.903 67.0259V63.1636C453.042 63.6991 454.25 64.1206 455.526 64.4282C456.813 64.7358 458.01 64.8896 459.115 64.8896C460.733 64.8896 461.923 64.582 462.687 63.9668C463.461 63.3516 463.849 62.5256 463.849 61.4888C463.849 60.5545 463.495 59.7627 462.789 59.1133C462.083 58.4639 460.624 57.6948 458.414 56.8062C456.135 55.8833 454.529 54.8294 453.595 53.6445C452.66 52.4596 452.193 51.0355 452.193 49.3721C452.193 47.2871 452.934 45.6465 454.415 44.4502C455.896 43.2539 457.884 42.6558 460.379 42.6558C462.772 42.6558 465.153 43.1799 467.523 44.228L466.224 47.5605C464.002 46.6263 462.02 46.1592 460.277 46.1592C458.955 46.1592 457.953 46.4497 457.269 47.0308C456.585 47.6004 456.244 48.3581 456.244 49.3037C456.244 49.9531 456.38 50.5114 456.654 50.9785C456.927 51.4342 457.377 51.8672 458.004 52.2773C458.631 52.6875 459.758 53.2287 461.388 53.9009C463.222 54.6642 464.566 55.3763 465.421 56.0371C466.275 56.6979 466.902 57.4442 467.301 58.2759C467.7 59.1076 467.899 60.0874 467.899 61.2153ZM469.437 49.0986H473.812L477.657 59.814C478.238 61.3407 478.626 62.7762 478.819 64.1206H478.956C479.059 63.494 479.247 62.7363 479.52 61.8477C479.793 60.9476 481.24 56.6979 483.861 49.0986H488.202L480.118 70.5122C478.648 74.4429 476.199 76.4082 472.77 76.4082C471.881 76.4082 471.015 76.3114 470.172 76.1177V72.939C470.776 73.0757 471.465 73.144 472.24 73.144C474.177 73.144 475.538 72.0218 476.324 69.7773L477.025 68L469.437 49.0986ZM503.771 62.6167C503.771 64.4624 503.098 65.8809 501.754 66.8721C500.41 67.8519 498.484 68.3418 495.978 68.3418C493.46 68.3418 491.437 67.9601 489.911 67.1968V63.7275C492.132 64.7529 494.2 65.2656 496.114 65.2656C498.587 65.2656 499.823 64.5194 499.823 63.0269C499.823 62.5483 499.686 62.1496 499.413 61.8306C499.139 61.5116 498.689 61.1812 498.062 60.8394C497.436 60.4976 496.564 60.1102 495.448 59.6772C493.272 58.8341 491.796 57.991 491.021 57.1479C490.258 56.3049 489.876 55.2111 489.876 53.8667C489.876 52.2489 490.526 50.9956 491.825 50.1069C493.135 49.2069 494.912 48.7568 497.157 48.7568C499.378 48.7568 501.48 49.2069 503.463 50.1069L502.164 53.1318C500.125 52.2887 498.41 51.8672 497.02 51.8672C494.901 51.8672 493.841 52.471 493.841 53.6787C493.841 54.2712 494.115 54.7725 494.662 55.1826C495.22 55.5928 496.428 56.1567 498.285 56.8745C499.846 57.4784 500.979 58.0309 501.686 58.5322C502.392 59.0335 502.916 59.6146 503.258 60.2754C503.6 60.9248 503.771 61.7052 503.771 62.6167ZM515.169 65.0947C516.149 65.0947 517.129 64.9409 518.109 64.6333V67.6582C517.665 67.8519 517.089 68.0114 516.383 68.1367C515.688 68.2734 514.964 68.3418 514.212 68.3418C510.407 68.3418 508.504 66.3366 508.504 62.3262V52.1406H505.924V50.3633L508.692 48.8936L510.06 44.8945H512.538V49.0986H517.921V52.1406H512.538V62.2578C512.538 63.2262 512.777 63.944 513.255 64.4111C513.745 64.8669 514.383 65.0947 515.169 65.0947ZM530.157 68.3418C527.218 68.3418 524.916 67.4873 523.253 65.7783C521.601 64.0579 520.775 61.6938 520.775 58.686C520.775 55.5985 521.544 53.1717 523.082 51.4058C524.62 49.6398 526.734 48.7568 529.422 48.7568C531.917 48.7568 533.889 49.5145 535.335 51.0298C536.782 52.5451 537.506 54.63 537.506 57.2847V59.4551H524.911C524.968 61.2894 525.463 62.7021 526.397 63.6934C527.332 64.6732 528.648 65.1631 530.345 65.1631C531.462 65.1631 532.499 65.0605 533.456 64.8555C534.424 64.639 535.461 64.2858 536.566 63.7959V67.0601C535.586 67.5272 534.595 67.8576 533.592 68.0513C532.59 68.245 531.445 68.3418 530.157 68.3418ZM529.422 51.7988C528.146 51.7988 527.121 52.2033 526.346 53.0122C525.583 53.8211 525.127 55.0003 524.979 56.5498H533.558C533.535 54.9889 533.159 53.8097 532.43 53.0122C531.701 52.2033 530.698 51.7988 529.422 51.7988ZM557.997 68H553.963V56.3447C553.963 54.8978 553.69 53.8211 553.143 53.1147C552.596 52.397 551.742 52.0381 550.58 52.0381C549.03 52.0381 547.891 52.5451 547.162 53.5591C546.444 54.5617 546.085 56.2365 546.085 58.5835V68H542.069V49.0986H545.213L545.777 51.5767H545.982C546.507 50.6766 547.264 49.9816 548.255 49.4917C549.258 49.0018 550.357 48.7568 551.554 48.7568C554.459 48.7568 556.384 49.748 557.33 51.7305H557.604C558.162 50.7962 558.948 50.0671 559.962 49.543C560.976 49.0189 562.138 48.7568 563.448 48.7568C565.704 48.7568 567.345 49.3265 568.37 50.4658C569.407 51.6051 569.925 53.3426 569.925 55.6782V68H565.909V56.3447C565.909 54.8978 565.63 53.8211 565.072 53.1147C564.525 52.397 563.67 52.0381 562.508 52.0381C560.947 52.0381 559.802 52.528 559.073 53.5078C558.355 54.4762 557.997 55.9688 557.997 57.9854V68Z" fill="black"/>
<path d="M56.0767 147.7H59.3467L64.5367 172H61.3267L60.2167 165.88H55.2667L54.0967 172H50.9167L56.0767 147.7ZM59.7667 163.45L57.7267 152.5L55.7167 163.45H59.7667ZM70.7523 172.24C69.2523 172.24 68.1523 171.7 67.4523 170.62C66.7523 169.52 66.4023 167.71 66.4023 165.19V161.83C66.4023 159.53 66.7023 157.72 67.3023 156.4C67.9223 155.08 69.0423 154.42 70.6623 154.42C71.6823 154.42 72.6423 154.87 73.5423 155.77V147.7H76.7523V172H73.5423V170.89C72.7023 171.79 71.7723 172.24 70.7523 172.24ZM71.5623 169.72C72.2023 169.72 72.8623 169.5 73.5423 169.06V157.69C72.8023 157.19 72.1223 156.94 71.5023 156.94C70.2423 156.94 69.6123 158.15 69.6123 160.57V165.46C69.6123 166.86 69.7423 167.92 70.0023 168.64C70.2623 169.36 70.7823 169.72 71.5623 169.72ZM78.8338 154.66H82.0738L84.2038 168.61L86.3638 154.66H89.4838L86.1838 172H82.2538L78.8338 154.66ZM94.6668 172.24C94.0068 172.24 93.4068 172.05 92.8668 171.67C92.3468 171.29 91.9368 170.79 91.6368 170.17C91.3368 169.55 91.1868 168.9 91.1868 168.22C91.1868 166.86 91.4768 165.76 92.0568 164.92C92.6368 164.06 93.3768 163.38 94.2768 162.88C95.1768 162.38 96.4268 161.81 98.0268 161.17V159.94C98.0268 158.8 97.9068 158 97.6668 157.54C97.4468 157.06 96.9868 156.82 96.2868 156.82C95.0668 156.82 94.4568 157.64 94.4568 159.28V160.15L91.2768 160.03C91.3168 158.11 91.7568 156.7 92.5968 155.8C93.4368 154.88 94.7368 154.42 96.4968 154.42C98.1568 154.42 99.3568 154.88 100.097 155.8C100.857 156.7 101.237 158.07 101.237 159.91V167.83C101.237 169.13 101.337 170.52 101.537 172H98.5968C98.3768 170.86 98.2368 170.01 98.1768 169.45C97.9368 170.23 97.5168 170.89 96.9168 171.43C96.3368 171.97 95.5868 172.24 94.6668 172.24ZM95.9268 169.48C96.3468 169.48 96.7568 169.32 97.1568 169C97.5568 168.66 97.8468 168.34 98.0268 168.04V163.12C97.1668 163.6 96.4968 164.02 96.0168 164.38C95.5568 164.72 95.1668 165.12 94.8468 165.58C94.5468 166.04 94.3968 166.59 94.3968 167.23C94.3968 167.95 94.5268 168.51 94.7868 168.91C95.0468 169.29 95.4268 169.48 95.9268 169.48ZM104.32 154.66H107.53V156.37C108.91 155.07 110.32 154.42 111.76 154.42C112.7 154.42 113.37 154.76 113.77 155.44C114.17 156.12 114.37 156.96 114.37 157.96V172H111.16V158.89C111.16 158.23 111.06 157.74 110.86 157.42C110.66 157.1 110.3 156.94 109.78 156.94C109.14 156.94 108.39 157.3 107.53 158.02V172H104.32V154.66ZM122.124 172.24C119.624 172.24 118.374 170.86 118.374 168.1V156.79H116.544V154.66H118.374V149.59H121.584V154.66H124.374V156.79H121.584V167.89C121.584 168.59 121.694 169.08 121.914 169.36C122.134 169.64 122.554 169.78 123.174 169.78C123.574 169.78 123.964 169.75 124.344 169.69V172.06C123.544 172.18 122.804 172.24 122.124 172.24ZM129.852 172.24C129.192 172.24 128.592 172.05 128.052 171.67C127.532 171.29 127.122 170.79 126.822 170.17C126.522 169.55 126.372 168.9 126.372 168.22C126.372 166.86 126.662 165.76 127.242 164.92C127.822 164.06 128.562 163.38 129.462 162.88C130.362 162.38 131.612 161.81 133.212 161.17V159.94C133.212 158.8 133.092 158 132.852 157.54C132.632 157.06 132.172 156.82 131.472 156.82C130.252 156.82 129.642 157.64 129.642 159.28V160.15L126.462 160.03C126.502 158.11 126.942 156.7 127.782 155.8C128.622 154.88 129.922 154.42 131.682 154.42C133.342 154.42 134.542 154.88 135.282 155.8C136.042 156.7 136.422 158.07 136.422 159.91V167.83C136.422 169.13 136.522 170.52 136.722 172H133.782C133.562 170.86 133.422 170.01 133.362 169.45C133.122 170.23 132.702 170.89 132.102 171.43C131.522 171.97 130.772 172.24 129.852 172.24ZM131.112 169.48C131.532 169.48 131.942 169.32 132.342 169C132.742 168.66 133.032 168.34 133.212 168.04V163.12C132.352 163.6 131.682 164.02 131.202 164.38C130.742 164.72 130.352 165.12 130.032 165.58C129.732 166.04 129.582 166.59 129.582 167.23C129.582 167.95 129.712 168.51 129.972 168.91C130.232 169.29 130.612 169.48 131.112 169.48ZM144.006 177.37C142.326 177.37 140.986 177.1 139.986 176.56C138.986 176.04 138.486 175.22 138.486 174.1C138.486 173.34 138.716 172.68 139.176 172.12C139.656 171.56 140.256 171.11 140.976 170.77C140.436 170.61 140.016 170.36 139.716 170.02C139.436 169.68 139.296 169.31 139.296 168.91C139.296 168.31 139.446 167.79 139.746 167.35C140.046 166.91 140.536 166.38 141.216 165.76C140.536 165.24 140.026 164.59 139.686 163.81C139.366 163.01 139.206 161.94 139.206 160.6C139.206 158.58 139.616 157.05 140.436 156.01C141.276 154.95 142.496 154.42 144.096 154.42C145.016 154.42 145.766 154.58 146.346 154.9C146.926 155.22 147.366 155.7 147.666 156.34C147.806 156.12 148.096 155.83 148.536 155.47C148.996 155.09 149.486 154.78 150.006 154.54L150.486 154.33L151.296 156.4C150.896 156.48 150.336 156.65 149.616 156.91C148.916 157.17 148.496 157.37 148.356 157.51C148.496 157.87 148.616 158.37 148.716 159.01C148.836 159.65 148.896 160.21 148.896 160.69C148.896 162.59 148.526 164.07 147.786 165.13C147.046 166.17 145.816 166.69 144.096 166.69C143.556 166.69 143.006 166.62 142.446 166.48C142.066 167.04 141.876 167.48 141.876 167.8C141.876 168.02 141.986 168.2 142.206 168.34C142.446 168.46 142.816 168.54 143.316 168.58L146.016 168.82C147.376 168.94 148.386 169.35 149.046 170.05C149.706 170.75 150.036 171.75 150.036 173.05C150.036 175.93 148.026 177.37 144.006 177.37ZM144.096 164.44C144.956 164.44 145.516 164.14 145.776 163.54C146.036 162.94 146.166 161.96 146.166 160.6C146.166 159.22 146.036 158.22 145.776 157.6C145.516 156.96 144.966 156.64 144.126 156.64C143.286 156.64 142.716 156.96 142.416 157.6C142.136 158.22 141.996 159.22 141.996 160.6C141.996 161.84 142.136 162.79 142.416 163.45C142.716 164.11 143.276 164.44 144.096 164.44ZM144.246 174.85C145.386 174.85 146.226 174.71 146.766 174.43C147.306 174.17 147.576 173.74 147.576 173.14C147.576 172.58 147.406 172.17 147.066 171.91C146.726 171.63 146.106 171.45 145.206 171.37L142.476 171.13C142.056 171.55 141.736 171.92 141.516 172.24C141.296 172.56 141.186 172.91 141.186 173.29C141.186 173.83 141.406 174.22 141.846 174.46C142.306 174.72 143.106 174.85 144.246 174.85ZM157.226 172.24C155.886 172.24 154.846 171.99 154.106 171.49C153.366 170.97 152.846 170.21 152.546 169.21C152.246 168.21 152.096 166.91 152.096 165.31V161.35C152.096 158.95 152.466 157.2 153.206 156.1C153.966 154.98 155.306 154.42 157.226 154.42C158.626 154.42 159.676 154.71 160.376 155.29C161.096 155.87 161.566 156.69 161.786 157.75C162.026 158.79 162.146 160.2 162.146 161.98V163.39H155.306V166.87C155.306 167.93 155.456 168.7 155.756 169.18C156.076 169.64 156.576 169.87 157.256 169.87C157.936 169.87 158.396 169.64 158.636 169.18C158.876 168.7 158.996 167.98 158.996 167.02V165.97H162.116V166.63C162.116 168.45 161.726 169.84 160.946 170.8C160.166 171.76 158.926 172.24 157.226 172.24ZM158.996 161.65V160.09C158.996 158.91 158.876 158.07 158.636 157.57C158.416 157.05 157.936 156.79 157.196 156.79C156.676 156.79 156.276 156.91 155.996 157.15C155.736 157.39 155.556 157.79 155.456 158.35C155.356 158.89 155.306 159.68 155.306 160.72V161.65H158.996ZM169.073 172.24C167.673 172.24 166.533 171.8 165.653 170.92C164.793 170.04 164.303 168.86 164.183 167.38L166.853 166.57C167.013 167.69 167.283 168.52 167.663 169.06C168.063 169.6 168.623 169.87 169.343 169.87C169.903 169.87 170.333 169.71 170.633 169.39C170.953 169.05 171.113 168.6 171.113 168.04C171.113 167.54 171.003 167.09 170.783 166.69C170.563 166.29 170.203 165.88 169.703 165.46L166.733 162.91C166.053 162.33 165.523 161.72 165.143 161.08C164.783 160.42 164.603 159.62 164.603 158.68C164.603 157.34 165.003 156.3 165.803 155.56C166.603 154.8 167.693 154.42 169.073 154.42C170.393 154.42 171.423 154.85 172.163 155.71C172.923 156.55 173.363 157.64 173.483 158.98L171.323 159.79C171.183 158.81 170.953 158.07 170.633 157.57C170.313 157.05 169.833 156.79 169.193 156.79C168.673 156.79 168.253 156.96 167.933 157.3C167.633 157.64 167.483 158.06 167.483 158.56C167.483 159.2 167.773 159.78 168.353 160.3L171.413 163.12C172.193 163.84 172.793 164.55 173.213 165.25C173.653 165.95 173.873 166.8 173.873 167.8C173.873 169.24 173.443 170.34 172.583 171.1C171.723 171.86 170.553 172.24 169.073 172.24Z" fill="#848484"/>
<path d="M50 196H394.5L373 236H50V196Z" fill="url(#paint0_linear_50_119)"/>
<path d="M59.301 216.127H60.76C61.7385 216.127 62.4475 215.945 62.8869 215.582C63.3264 215.219 63.5461 214.68 63.5461 213.965C63.5461 213.238 63.3088 212.717 62.8342 212.4C62.3596 212.084 61.6447 211.926 60.6896 211.926H59.301V216.127ZM59.301 217.867V223H57.2004V210.15H60.8303C62.4885 210.15 63.716 210.461 64.5129 211.082C65.3098 211.703 65.7082 212.641 65.7082 213.895C65.7082 215.494 64.8762 216.634 63.2121 217.313L66.842 223H64.4514L61.3752 217.867H59.301ZM72.7395 223.176C71.2277 223.176 70.0441 222.736 69.1887 221.857C68.3391 220.973 67.9143 219.757 67.9143 218.21C67.9143 216.622 68.3098 215.374 69.1008 214.466C69.8918 213.558 70.9787 213.104 72.3615 213.104C73.6447 213.104 74.6584 213.493 75.4025 214.272C76.1467 215.052 76.5187 216.124 76.5187 217.489V218.605H70.0412C70.0705 219.549 70.3254 220.275 70.8059 220.785C71.2863 221.289 71.9631 221.541 72.8361 221.541C73.4104 221.541 73.9436 221.488 74.4357 221.383C74.9338 221.271 75.467 221.09 76.0354 220.838V222.517C75.5314 222.757 75.0217 222.927 74.5061 223.026C73.9904 223.126 73.4016 223.176 72.7395 223.176ZM72.3615 214.668C71.7053 214.668 71.1779 214.876 70.7795 215.292C70.3869 215.708 70.1525 216.314 70.0764 217.111H74.4885C74.4768 216.309 74.2834 215.702 73.9084 215.292C73.5334 214.876 73.0178 214.668 72.3615 214.668ZM82.1437 223.176C80.9309 223.176 79.9846 222.736 79.3049 221.857C78.6252 220.979 78.2854 219.745 78.2854 218.157C78.2854 216.563 78.6281 215.324 79.3137 214.439C80.0051 213.549 80.9602 213.104 82.1789 213.104C83.4562 213.104 84.4289 213.575 85.0969 214.519H85.2023C85.1027 213.821 85.0529 213.271 85.0529 212.866V209.324H87.1271V223H85.51L85.1496 221.726H85.0529C84.3908 222.692 83.4211 223.176 82.1437 223.176ZM82.6975 221.506C83.5471 221.506 84.1652 221.269 84.552 220.794C84.9387 220.313 85.1379 219.537 85.1496 218.465V218.175C85.1496 216.95 84.9504 216.08 84.552 215.564C84.1535 215.049 83.5295 214.791 82.6799 214.791C81.9533 214.791 81.3937 215.087 81.0012 215.679C80.6086 216.265 80.4123 217.103 80.4123 218.192C80.4123 219.271 80.6027 220.094 80.9836 220.662C81.3645 221.225 81.9357 221.506 82.6975 221.506ZM96.9357 223L96.6457 221.726H96.5402C96.2531 222.177 95.843 222.531 95.3098 222.789C94.7824 223.047 94.1789 223.176 93.4992 223.176C92.3215 223.176 91.4426 222.883 90.8625 222.297C90.2824 221.711 89.9924 220.823 89.9924 219.634V213.279H92.0754V219.273C92.0754 220.018 92.2277 220.577 92.5324 220.952C92.8371 221.321 93.3146 221.506 93.965 221.506C94.8322 221.506 95.468 221.248 95.8723 220.732C96.2824 220.211 96.4875 219.341 96.4875 218.122V213.279H98.5617V223H96.9357ZM105.426 223.176C103.955 223.176 102.836 222.748 102.069 221.893C101.307 221.031 100.926 219.798 100.926 218.192C100.926 216.558 101.324 215.301 102.121 214.422C102.924 213.543 104.081 213.104 105.593 213.104C106.618 213.104 107.541 213.294 108.362 213.675L107.737 215.336C106.864 214.996 106.144 214.826 105.575 214.826C103.894 214.826 103.053 215.942 103.053 218.175C103.053 219.265 103.261 220.085 103.677 220.636C104.099 221.181 104.714 221.453 105.523 221.453C106.443 221.453 107.313 221.225 108.133 220.768V222.569C107.764 222.786 107.368 222.941 106.946 223.035C106.53 223.129 106.024 223.176 105.426 223.176ZM114.663 223.176C113.152 223.176 111.968 222.736 111.112 221.857C110.263 220.973 109.838 219.757 109.838 218.21C109.838 216.622 110.234 215.374 111.025 214.466C111.816 213.558 112.903 213.104 114.285 213.104C115.569 213.104 116.582 213.493 117.326 214.272C118.071 215.052 118.443 216.124 118.443 217.489V218.605H111.965C111.994 219.549 112.249 220.275 112.73 220.785C113.21 221.289 113.887 221.541 114.76 221.541C115.334 221.541 115.867 221.488 116.36 221.383C116.858 221.271 117.391 221.09 117.959 220.838V222.517C117.455 222.757 116.946 222.927 116.43 223.026C115.914 223.126 115.325 223.176 114.663 223.176ZM114.285 214.668C113.629 214.668 113.102 214.876 112.703 215.292C112.311 215.708 112.076 216.314 112 217.111H116.412C116.401 216.309 116.207 215.702 115.832 215.292C115.457 214.876 114.942 214.668 114.285 214.668ZM137.541 223H135.256L133.076 215.336C132.983 215.002 132.865 214.521 132.725 213.895C132.584 213.262 132.499 212.822 132.47 212.576C132.411 212.951 132.315 213.438 132.18 214.035C132.051 214.633 131.943 215.078 131.855 215.371L129.728 223H127.443L125.781 216.566L124.094 210.15H126.238L128.075 217.639C128.363 218.84 128.568 219.9 128.691 220.82C128.755 220.322 128.852 219.766 128.981 219.15C129.11 218.535 129.227 218.037 129.332 217.656L131.424 210.15H133.507L135.652 217.691C135.857 218.389 136.073 219.432 136.302 220.82C136.39 219.982 136.601 218.916 136.935 217.621L138.763 210.15H140.89L137.541 223ZM151.12 218.122C151.12 219.71 150.713 220.949 149.899 221.84C149.084 222.73 147.95 223.176 146.497 223.176C145.589 223.176 144.786 222.971 144.089 222.561C143.392 222.15 142.856 221.562 142.481 220.794C142.106 220.026 141.918 219.136 141.918 218.122C141.918 216.546 142.322 215.315 143.131 214.431C143.94 213.546 145.079 213.104 146.55 213.104C147.956 213.104 149.07 213.558 149.89 214.466C150.71 215.368 151.12 216.587 151.12 218.122ZM144.045 218.122C144.045 220.366 144.874 221.488 146.532 221.488C148.173 221.488 148.993 220.366 148.993 218.122C148.993 215.901 148.167 214.791 146.515 214.791C145.648 214.791 145.018 215.078 144.625 215.652C144.238 216.227 144.045 217.05 144.045 218.122ZM158.433 213.104C158.849 213.104 159.192 213.133 159.461 213.191L159.259 215.116C158.966 215.046 158.661 215.011 158.345 215.011C157.519 215.011 156.848 215.28 156.332 215.819C155.822 216.358 155.568 217.059 155.568 217.92V223H153.502V213.279H155.119L155.392 214.993H155.497C155.82 214.413 156.238 213.953 156.754 213.613C157.276 213.273 157.835 213.104 158.433 213.104ZM163.267 217.867L164.436 216.408L167.371 213.279H169.753L165.842 217.454L169.999 223H167.573L164.453 218.737L163.32 219.669V223H161.272V209.324H163.32V215.995L163.214 217.867H163.267Z" fill="#222222"/>
<path d="M50 246H367.5L347 286H50V246Z" fill="url(#paint1_linear_50_119)"/>
<path d="M59.0225 273H56.9395V260.15H64.1904V261.926H59.0225V265.942H63.8652V267.727H59.0225V273ZM72.3818 273L71.9688 271.646H71.8984C71.4297 272.238 70.958 272.643 70.4834 272.859C70.0088 273.07 69.3994 273.176 68.6553 273.176C67.7002 273.176 66.9531 272.918 66.4141 272.402C65.8809 271.887 65.6143 271.157 65.6143 270.214C65.6143 269.212 65.9863 268.456 66.7305 267.946C67.4746 267.437 68.6084 267.158 70.1318 267.111L71.8105 267.059V266.54C71.8105 265.919 71.6641 265.456 71.3711 265.151C71.084 264.841 70.6357 264.686 70.0264 264.686C69.5283 264.686 69.0508 264.759 68.5938 264.905C68.1367 265.052 67.6973 265.225 67.2754 265.424L66.6074 263.947C67.1348 263.672 67.7119 263.464 68.3389 263.323C68.9658 263.177 69.5576 263.104 70.1143 263.104C71.3506 263.104 72.2822 263.373 72.9092 263.912C73.542 264.451 73.8584 265.298 73.8584 266.452V273H72.3818ZM69.3057 271.594C70.0557 271.594 70.6562 271.386 71.1074 270.97C71.5645 270.548 71.793 269.959 71.793 269.203V268.359L70.5449 268.412C69.5723 268.447 68.8633 268.611 68.418 268.904C67.9785 269.191 67.7588 269.634 67.7588 270.231C67.7588 270.665 67.8877 271.002 68.1455 271.242C68.4033 271.477 68.79 271.594 69.3057 271.594ZM83.2715 270.231C83.2715 271.181 82.9258 271.91 82.2344 272.42C81.543 272.924 80.5527 273.176 79.2637 273.176C77.9688 273.176 76.9287 272.979 76.1436 272.587V270.803C77.2861 271.33 78.3496 271.594 79.334 271.594C80.6055 271.594 81.2412 271.21 81.2412 270.442C81.2412 270.196 81.1709 269.991 81.0303 269.827C80.8896 269.663 80.6582 269.493 80.3359 269.317C80.0137 269.142 79.5654 268.942 78.9912 268.72C77.8721 268.286 77.1133 267.853 76.7148 267.419C76.3223 266.985 76.126 266.423 76.126 265.731C76.126 264.899 76.46 264.255 77.1279 263.798C77.8018 263.335 78.7158 263.104 79.8701 263.104C81.0127 263.104 82.0938 263.335 83.1133 263.798L82.4453 265.354C81.3965 264.92 80.5146 264.703 79.7998 264.703C78.71 264.703 78.165 265.014 78.165 265.635C78.165 265.939 78.3057 266.197 78.5869 266.408C78.874 266.619 79.4951 266.909 80.4502 267.278C81.2529 267.589 81.8359 267.873 82.1992 268.131C82.5625 268.389 82.832 268.688 83.0078 269.027C83.1836 269.361 83.2715 269.763 83.2715 270.231ZM89.1338 271.506C89.6377 271.506 90.1416 271.427 90.6455 271.269V272.824C90.417 272.924 90.1211 273.006 89.7578 273.07C89.4004 273.141 89.0283 273.176 88.6416 273.176C86.6846 273.176 85.7061 272.145 85.7061 270.082V264.844H84.3789V263.93L85.8027 263.174L86.5059 261.117H87.7803V263.279H90.5488V264.844H87.7803V270.047C87.7803 270.545 87.9033 270.914 88.1494 271.154C88.4014 271.389 88.7295 271.506 89.1338 271.506ZM104.901 269.511C104.901 270.653 104.488 271.55 103.662 272.2C102.836 272.851 101.696 273.176 100.243 273.176C98.79 273.176 97.6006 272.95 96.6748 272.499V270.513C97.2607 270.788 97.8818 271.005 98.5381 271.163C99.2002 271.321 99.8154 271.4 100.384 271.4C101.216 271.4 101.828 271.242 102.221 270.926C102.619 270.609 102.818 270.185 102.818 269.651C102.818 269.171 102.637 268.764 102.273 268.43C101.91 268.096 101.16 267.7 100.023 267.243C98.8516 266.769 98.0254 266.227 97.5449 265.617C97.0645 265.008 96.8242 264.275 96.8242 263.42C96.8242 262.348 97.2051 261.504 97.9668 260.889C98.7285 260.273 99.751 259.966 101.034 259.966C102.265 259.966 103.489 260.235 104.708 260.774L104.04 262.488C102.897 262.008 101.878 261.768 100.981 261.768C100.302 261.768 99.7861 261.917 99.4346 262.216C99.083 262.509 98.9072 262.898 98.9072 263.385C98.9072 263.719 98.9775 264.006 99.1182 264.246C99.2588 264.48 99.4902 264.703 99.8125 264.914C100.135 265.125 100.715 265.403 101.553 265.749C102.496 266.142 103.188 266.508 103.627 266.848C104.066 267.188 104.389 267.571 104.594 267.999C104.799 268.427 104.901 268.931 104.901 269.511ZM110.79 271.506C111.294 271.506 111.798 271.427 112.302 271.269V272.824C112.073 272.924 111.777 273.006 111.414 273.07C111.057 273.141 110.685 273.176 110.298 273.176C108.341 273.176 107.362 272.145 107.362 270.082V264.844H106.035V263.93L107.459 263.174L108.162 261.117H109.437V263.279H112.205V264.844H109.437V270.047C109.437 270.545 109.56 270.914 109.806 271.154C110.058 271.389 110.386 271.506 110.79 271.506ZM122.875 268.122C122.875 269.71 122.468 270.949 121.653 271.84C120.839 272.73 119.705 273.176 118.252 273.176C117.344 273.176 116.541 272.971 115.844 272.561C115.146 272.15 114.61 271.562 114.235 270.794C113.86 270.026 113.673 269.136 113.673 268.122C113.673 266.546 114.077 265.315 114.886 264.431C115.694 263.546 116.834 263.104 118.305 263.104C119.711 263.104 120.824 263.558 121.645 264.466C122.465 265.368 122.875 266.587 122.875 268.122ZM115.8 268.122C115.8 270.366 116.629 271.488 118.287 271.488C119.928 271.488 120.748 270.366 120.748 268.122C120.748 265.901 119.922 264.791 118.27 264.791C117.402 264.791 116.772 265.078 116.38 265.652C115.993 266.227 115.8 267.05 115.8 268.122ZM130.188 263.104C130.604 263.104 130.946 263.133 131.216 263.191L131.014 265.116C130.721 265.046 130.416 265.011 130.1 265.011C129.273 265.011 128.603 265.28 128.087 265.819C127.577 266.358 127.322 267.059 127.322 267.92V273H125.257V263.279H126.874L127.146 264.993H127.252C127.574 264.413 127.993 263.953 128.509 263.613C129.03 263.273 129.59 263.104 130.188 263.104ZM139.108 273L138.695 271.646H138.625C138.156 272.238 137.685 272.643 137.21 272.859C136.735 273.07 136.126 273.176 135.382 273.176C134.427 273.176 133.68 272.918 133.141 272.402C132.607 271.887 132.341 271.157 132.341 270.214C132.341 269.212 132.713 268.456 133.457 267.946C134.201 267.437 135.335 267.158 136.858 267.111L138.537 267.059V266.54C138.537 265.919 138.391 265.456 138.098 265.151C137.811 264.841 137.362 264.686 136.753 264.686C136.255 264.686 135.777 264.759 135.32 264.905C134.863 265.052 134.424 265.225 134.002 265.424L133.334 263.947C133.861 263.672 134.438 263.464 135.065 263.323C135.692 263.177 136.284 263.104 136.841 263.104C138.077 263.104 139.009 263.373 139.636 263.912C140.269 264.451 140.585 265.298 140.585 266.452V273H139.108ZM136.032 271.594C136.782 271.594 137.383 271.386 137.834 270.97C138.291 270.548 138.52 269.959 138.52 269.203V268.359L137.271 268.412C136.299 268.447 135.59 268.611 135.145 268.904C134.705 269.191 134.485 269.634 134.485 270.231C134.485 270.665 134.614 271.002 134.872 271.242C135.13 271.477 135.517 271.594 136.032 271.594ZM151.677 263.279V264.413L150.016 264.721C150.168 264.926 150.294 265.178 150.394 265.477C150.493 265.775 150.543 266.092 150.543 266.426C150.543 267.428 150.197 268.216 149.506 268.79C148.814 269.364 147.862 269.651 146.649 269.651C146.339 269.651 146.058 269.628 145.806 269.581C145.36 269.856 145.138 270.179 145.138 270.548C145.138 270.771 145.24 270.938 145.445 271.049C145.656 271.16 146.04 271.216 146.597 271.216H148.293C149.365 271.216 150.18 271.444 150.736 271.901C151.293 272.358 151.571 273.018 151.571 273.879C151.571 274.98 151.117 275.83 150.209 276.428C149.301 277.025 147.988 277.324 146.271 277.324C144.947 277.324 143.937 277.09 143.239 276.621C142.542 276.152 142.193 275.484 142.193 274.617C142.193 274.02 142.381 273.516 142.756 273.105C143.137 272.701 143.667 272.42 144.347 272.262C144.071 272.145 143.843 271.957 143.661 271.699C143.485 271.436 143.397 271.16 143.397 270.873C143.397 270.51 143.5 270.202 143.705 269.95C143.91 269.698 144.215 269.449 144.619 269.203C144.115 268.986 143.705 268.635 143.389 268.148C143.078 267.656 142.923 267.082 142.923 266.426C142.923 265.371 143.254 264.554 143.916 263.974C144.584 263.394 145.533 263.104 146.764 263.104C147.039 263.104 147.326 263.124 147.625 263.165C147.93 263.2 148.158 263.238 148.311 263.279H151.677ZM144.039 274.512C144.039 274.957 144.238 275.3 144.637 275.54C145.041 275.78 145.606 275.9 146.333 275.9C147.458 275.9 148.296 275.739 148.847 275.417C149.397 275.095 149.673 274.667 149.673 274.134C149.673 273.712 149.521 273.41 149.216 273.229C148.917 273.053 148.357 272.965 147.537 272.965H145.973C145.381 272.965 144.909 273.103 144.558 273.378C144.212 273.659 144.039 274.037 144.039 274.512ZM144.927 266.426C144.927 267.035 145.082 267.504 145.393 267.832C145.709 268.16 146.16 268.324 146.746 268.324C147.941 268.324 148.539 267.686 148.539 266.408C148.539 265.775 148.39 265.289 148.091 264.949C147.798 264.604 147.35 264.431 146.746 264.431C146.148 264.431 145.694 264.601 145.384 264.94C145.079 265.28 144.927 265.775 144.927 266.426ZM157.732 273.176C156.221 273.176 155.037 272.736 154.182 271.857C153.332 270.973 152.907 269.757 152.907 268.21C152.907 266.622 153.303 265.374 154.094 264.466C154.885 263.558 155.972 263.104 157.354 263.104C158.638 263.104 159.651 263.493 160.396 264.272C161.14 265.052 161.512 266.124 161.512 267.489V268.605H155.034C155.063 269.549 155.318 270.275 155.799 270.785C156.279 271.289 156.956 271.541 157.829 271.541C158.403 271.541 158.937 271.488 159.429 271.383C159.927 271.271 160.46 271.09 161.028 270.838V272.517C160.524 272.757 160.015 272.927 159.499 273.026C158.983 273.126 158.395 273.176 157.732 273.176ZM157.354 264.668C156.698 264.668 156.171 264.876 155.772 265.292C155.38 265.708 155.146 266.314 155.069 267.111H159.481C159.47 266.309 159.276 265.702 158.901 265.292C158.526 264.876 158.011 264.668 157.354 264.668Z" fill="#222222"/>
<path d="M50 296H342L315 346H50V296Z" fill="url(#paint2_linear_50_119)"/>
<path d="M59.4289 322.127H60.8879C61.8664 322.127 62.5754 321.945 63.0148 321.582C63.4543 321.219 63.674 320.68 63.674 319.965C63.674 319.238 63.4367 318.717 62.9621 318.4C62.4875 318.084 61.7727 317.926 60.8176 317.926H59.4289V322.127ZM59.4289 323.867V329H57.3283V316.15H60.9582C62.6164 316.15 63.8439 316.461 64.6408 317.082C65.4377 317.703 65.8361 318.641 65.8361 319.895C65.8361 321.494 65.0041 322.634 63.34 323.313L66.9699 329H64.5793L61.5031 323.867H59.4289ZM72.8674 329.176C71.3557 329.176 70.1721 328.736 69.3166 327.857C68.467 326.973 68.0422 325.757 68.0422 324.21C68.0422 322.622 68.4377 321.374 69.2287 320.466C70.0197 319.558 71.1066 319.104 72.4895 319.104C73.7727 319.104 74.7863 319.493 75.5305 320.272C76.2746 321.052 76.6467 322.124 76.6467 323.489V324.605H70.1691C70.1984 325.549 70.4533 326.275 70.9338 326.785C71.4143 327.289 72.091 327.541 72.9641 327.541C73.5383 327.541 74.0715 327.488 74.5637 327.383C75.0617 327.271 75.5949 327.09 76.1633 326.838V328.517C75.6594 328.757 75.1496 328.927 74.634 329.026C74.1184 329.126 73.5295 329.176 72.8674 329.176ZM72.4895 320.668C71.8332 320.668 71.3059 320.876 70.9074 321.292C70.5148 321.708 70.2805 322.314 70.2043 323.111H74.6164C74.6047 322.309 74.4113 321.702 74.0363 321.292C73.6613 320.876 73.1457 320.668 72.4895 320.668ZM82.2717 329.176C81.0588 329.176 80.1125 328.736 79.4328 327.857C78.7531 326.979 78.4133 325.745 78.4133 324.157C78.4133 322.563 78.7561 321.324 79.4416 320.439C80.133 319.549 81.0881 319.104 82.3068 319.104C83.5842 319.104 84.5568 319.575 85.2248 320.519H85.3303C85.2307 319.821 85.1809 319.271 85.1809 318.866V315.324H87.2551V329H85.6379L85.2775 327.726H85.1809C84.5188 328.692 83.549 329.176 82.2717 329.176ZM82.8254 327.506C83.675 327.506 84.2932 327.269 84.6799 326.794C85.0666 326.313 85.2658 325.537 85.2775 324.465V324.175C85.2775 322.95 85.0783 322.08 84.6799 321.564C84.2814 321.049 83.6574 320.791 82.8078 320.791C82.0813 320.791 81.5217 321.087 81.1291 321.679C80.7365 322.265 80.5402 323.103 80.5402 324.192C80.5402 325.271 80.7307 326.094 81.1115 326.662C81.4924 327.225 82.0637 327.506 82.8254 327.506ZM97.0637 329L96.7736 327.726H96.6682C96.3811 328.177 95.9709 328.531 95.4377 328.789C94.9104 329.047 94.3068 329.176 93.6272 329.176C92.4494 329.176 91.5705 328.883 90.9904 328.297C90.4104 327.711 90.1203 326.823 90.1203 325.634V319.279H92.2033V325.273C92.2033 326.018 92.3557 326.577 92.6604 326.952C92.965 327.321 93.4426 327.506 94.093 327.506C94.9602 327.506 95.5959 327.248 96.0002 326.732C96.4104 326.211 96.6154 325.341 96.6154 324.122V319.279H98.6897V329H97.0637ZM105.554 329.176C104.083 329.176 102.964 328.748 102.196 327.893C101.435 327.031 101.054 325.798 101.054 324.192C101.054 322.558 101.452 321.301 102.249 320.422C103.052 319.543 104.209 319.104 105.721 319.104C106.746 319.104 107.669 319.294 108.489 319.675L107.865 321.336C106.992 320.996 106.272 320.826 105.703 320.826C104.022 320.826 103.181 321.942 103.181 324.175C103.181 325.265 103.389 326.085 103.805 326.636C104.227 327.181 104.842 327.453 105.651 327.453C106.571 327.453 107.441 327.225 108.261 326.768V328.569C107.892 328.786 107.496 328.941 107.074 329.035C106.658 329.129 106.152 329.176 105.554 329.176ZM114.791 329.176C113.279 329.176 112.096 328.736 111.24 327.857C110.391 326.973 109.966 325.757 109.966 324.21C109.966 322.622 110.362 321.374 111.153 320.466C111.944 319.558 113.03 319.104 114.413 319.104C115.696 319.104 116.71 319.493 117.454 320.272C118.198 321.052 118.571 322.124 118.571 323.489V324.605H112.093C112.122 325.549 112.377 326.275 112.858 326.785C113.338 327.289 114.015 327.541 114.888 327.541C115.462 327.541 115.995 327.488 116.488 327.383C116.986 327.271 117.519 327.09 118.087 326.838V328.517C117.583 328.757 117.073 328.927 116.558 329.026C116.042 329.126 115.453 329.176 114.791 329.176ZM114.413 320.668C113.757 320.668 113.23 320.876 112.831 321.292C112.439 321.708 112.204 322.314 112.128 323.111H116.54C116.529 322.309 116.335 321.702 115.96 321.292C115.585 320.876 115.07 320.668 114.413 320.668ZM133.222 325.511C133.222 326.653 132.809 327.55 131.983 328.2C131.156 328.851 130.017 329.176 128.564 329.176C127.111 329.176 125.921 328.95 124.995 328.499V326.513C125.581 326.788 126.202 327.005 126.859 327.163C127.521 327.321 128.136 327.4 128.704 327.4C129.536 327.4 130.149 327.242 130.541 326.926C130.94 326.609 131.139 326.185 131.139 325.651C131.139 325.171 130.957 324.764 130.594 324.43C130.231 324.096 129.481 323.7 128.344 323.243C127.172 322.769 126.346 322.227 125.865 321.617C125.385 321.008 125.145 320.275 125.145 319.42C125.145 318.348 125.526 317.504 126.287 316.889C127.049 316.273 128.071 315.966 129.355 315.966C130.585 315.966 131.81 316.235 133.029 316.774L132.361 318.488C131.218 318.008 130.198 317.768 129.302 317.768C128.622 317.768 128.107 317.917 127.755 318.216C127.404 318.509 127.228 318.898 127.228 319.385C127.228 319.719 127.298 320.006 127.439 320.246C127.579 320.48 127.811 320.703 128.133 320.914C128.455 321.125 129.035 321.403 129.873 321.749C130.817 322.142 131.508 322.508 131.947 322.848C132.387 323.188 132.709 323.571 132.914 323.999C133.119 324.427 133.222 324.931 133.222 325.511ZM140.42 329.176C139.19 329.176 138.235 328.733 137.555 327.849H137.432C137.514 328.669 137.555 329.167 137.555 329.343V333.324H135.489V319.279H137.159C137.206 319.461 137.303 319.895 137.449 320.58H137.555C138.199 319.596 139.166 319.104 140.455 319.104C141.668 319.104 142.612 319.543 143.285 320.422C143.965 321.301 144.305 322.534 144.305 324.122C144.305 325.71 143.959 326.949 143.268 327.84C142.582 328.73 141.633 329.176 140.42 329.176ZM139.919 320.791C139.099 320.791 138.498 321.031 138.117 321.512C137.742 321.992 137.555 322.76 137.555 323.814V324.122C137.555 325.306 137.742 326.164 138.117 326.697C138.492 327.225 139.105 327.488 139.954 327.488C140.669 327.488 141.22 327.195 141.607 326.609C141.993 326.023 142.187 325.188 142.187 324.104C142.187 323.015 141.993 322.191 141.607 321.635C141.226 321.072 140.663 320.791 139.919 320.791ZM152.786 329L152.373 327.646H152.303C151.834 328.238 151.363 328.643 150.888 328.859C150.413 329.07 149.804 329.176 149.06 329.176C148.105 329.176 147.358 328.918 146.819 328.402C146.285 327.887 146.019 327.157 146.019 326.214C146.019 325.212 146.391 324.456 147.135 323.946C147.879 323.437 149.013 323.158 150.536 323.111L152.215 323.059V322.54C152.215 321.919 152.069 321.456 151.776 321.151C151.488 320.841 151.04 320.686 150.431 320.686C149.933 320.686 149.455 320.759 148.998 320.905C148.541 321.052 148.102 321.225 147.68 321.424L147.012 319.947C147.539 319.672 148.116 319.464 148.743 319.323C149.37 319.177 149.962 319.104 150.519 319.104C151.755 319.104 152.687 319.373 153.314 319.912C153.946 320.451 154.263 321.298 154.263 322.452V329H152.786ZM149.71 327.594C150.46 327.594 151.061 327.386 151.512 326.97C151.969 326.548 152.197 325.959 152.197 325.203V324.359L150.949 324.412C149.977 324.447 149.268 324.611 148.822 324.904C148.383 325.191 148.163 325.634 148.163 326.231C148.163 326.665 148.292 327.002 148.55 327.242C148.808 327.477 149.195 327.594 149.71 327.594ZM161.066 329.176C159.595 329.176 158.476 328.748 157.708 327.893C156.946 327.031 156.566 325.798 156.566 324.192C156.566 322.558 156.964 321.301 157.761 320.422C158.564 319.543 159.721 319.104 161.233 319.104C162.258 319.104 163.181 319.294 164.001 319.675L163.377 321.336C162.504 320.996 161.783 320.826 161.215 320.826C159.533 320.826 158.693 321.942 158.693 324.175C158.693 325.265 158.901 326.085 159.317 326.636C159.738 327.181 160.354 327.453 161.162 327.453C162.082 327.453 162.952 327.225 163.773 326.768V328.569C163.404 328.786 163.008 328.941 162.586 329.035C162.17 329.129 161.663 329.176 161.066 329.176ZM170.303 329.176C168.791 329.176 167.608 328.736 166.752 327.857C165.903 326.973 165.478 325.757 165.478 324.21C165.478 322.622 165.873 321.374 166.664 320.466C167.455 319.558 168.542 319.104 169.925 319.104C171.208 319.104 172.222 319.493 172.966 320.272C173.71 321.052 174.082 322.124 174.082 323.489V324.605H167.605C167.634 325.549 167.889 326.275 168.369 326.785C168.85 327.289 169.527 327.541 170.4 327.541C170.974 327.541 171.507 327.488 171.999 327.383C172.497 327.271 173.03 327.09 173.599 326.838V328.517C173.095 328.757 172.585 328.927 172.07 329.026C171.554 329.126 170.965 329.176 170.303 329.176ZM169.925 320.668C169.269 320.668 168.741 320.876 168.343 321.292C167.95 321.708 167.716 322.314 167.64 323.111H172.052C172.04 322.309 171.847 321.702 171.472 321.292C171.097 320.876 170.581 320.668 169.925 320.668Z" fill="#222222"/>
<path d="M50 356H311L280 416H50V356Z" fill="url(#paint3_linear_50_119)"/>
<path d="M59.2051 393V380.15H61.3057V393H59.2051ZM72.6787 393H70.6045V387.006C70.6045 386.262 70.4639 385.708 70.1826 385.345C69.9014 384.976 69.4619 384.791 68.8643 384.791C68.0674 384.791 67.4814 385.052 67.1064 385.573C66.7373 386.089 66.5527 386.95 66.5527 388.157V393H64.4873V383.279H66.1045L66.3945 384.554H66.5C66.7695 384.091 67.1592 383.733 67.6689 383.481C68.1846 383.229 68.75 383.104 69.3652 383.104C70.8594 383.104 71.8496 383.613 72.3359 384.633H72.4766C72.7637 384.152 73.168 383.777 73.6895 383.508C74.2109 383.238 74.8086 383.104 75.4824 383.104C76.6426 383.104 77.4863 383.396 78.0137 383.982C78.5469 384.568 78.8135 385.462 78.8135 386.663V393H76.748V387.006C76.748 386.262 76.6045 385.708 76.3174 385.345C76.0361 384.976 75.5967 384.791 74.999 384.791C74.1963 384.791 73.6074 385.043 73.2324 385.547C72.8633 386.045 72.6787 386.812 72.6787 387.85V393ZM86.627 393.176C85.3965 393.176 84.4414 392.733 83.7617 391.849H83.6387C83.7207 392.669 83.7617 393.167 83.7617 393.343V397.324H81.6963V383.279H83.3662C83.4131 383.461 83.5098 383.895 83.6562 384.58H83.7617C84.4062 383.596 85.373 383.104 86.6621 383.104C87.875 383.104 88.8184 383.543 89.4922 384.422C90.1719 385.301 90.5117 386.534 90.5117 388.122C90.5117 389.71 90.166 390.949 89.4746 391.84C88.7891 392.73 87.8398 393.176 86.627 393.176ZM86.126 384.791C85.3057 384.791 84.7051 385.031 84.3242 385.512C83.9492 385.992 83.7617 386.76 83.7617 387.814V388.122C83.7617 389.306 83.9492 390.164 84.3242 390.697C84.6992 391.225 85.3115 391.488 86.1611 391.488C86.876 391.488 87.4268 391.195 87.8135 390.609C88.2002 390.023 88.3936 389.188 88.3936 388.104C88.3936 387.015 88.2002 386.191 87.8135 385.635C87.4326 385.072 86.8701 384.791 86.126 384.791ZM97.8418 383.104C98.2578 383.104 98.6006 383.133 98.8701 383.191L98.668 385.116C98.375 385.046 98.0703 385.011 97.7539 385.011C96.9277 385.011 96.2568 385.28 95.7412 385.819C95.2314 386.358 94.9766 387.059 94.9766 387.92V393H92.9111V383.279H94.5283L94.8008 384.993H94.9062C95.2285 384.413 95.6475 383.953 96.1631 383.613C96.6846 383.273 97.2441 383.104 97.8418 383.104ZM109.303 388.122C109.303 389.71 108.896 390.949 108.081 391.84C107.267 392.73 106.133 393.176 104.68 393.176C103.771 393.176 102.969 392.971 102.271 392.561C101.574 392.15 101.038 391.562 100.663 390.794C100.288 390.026 100.101 389.136 100.101 388.122C100.101 386.546 100.505 385.315 101.313 384.431C102.122 383.546 103.262 383.104 104.732 383.104C106.139 383.104 107.252 383.558 108.072 384.466C108.893 385.368 109.303 386.587 109.303 388.122ZM102.228 388.122C102.228 390.366 103.057 391.488 104.715 391.488C106.355 391.488 107.176 390.366 107.176 388.122C107.176 385.901 106.35 384.791 104.697 384.791C103.83 384.791 103.2 385.078 102.808 385.652C102.421 386.227 102.228 387.05 102.228 388.122ZM113.899 393L110.208 383.279H112.388L114.365 388.931C114.705 389.88 114.91 390.647 114.98 391.233H115.051C115.104 390.812 115.309 390.044 115.666 388.931L117.644 383.279H119.841L116.132 393H113.899ZM125.562 393.176C124.051 393.176 122.867 392.736 122.012 391.857C121.162 390.973 120.737 389.757 120.737 388.21C120.737 386.622 121.133 385.374 121.924 384.466C122.715 383.558 123.802 383.104 125.185 383.104C126.468 383.104 127.481 383.493 128.226 384.272C128.97 385.052 129.342 386.124 129.342 387.489V388.605H122.864C122.894 389.549 123.148 390.275 123.629 390.785C124.109 391.289 124.786 391.541 125.659 391.541C126.233 391.541 126.767 391.488 127.259 391.383C127.757 391.271 128.29 391.09 128.858 390.838V392.517C128.354 392.757 127.845 392.927 127.329 393.026C126.813 393.126 126.225 393.176 125.562 393.176ZM125.185 384.668C124.528 384.668 124.001 384.876 123.603 385.292C123.21 385.708 122.976 386.314 122.899 387.111H127.312C127.3 386.309 127.106 385.702 126.731 385.292C126.356 384.876 125.841 384.668 125.185 384.668ZM142.051 381.768C140.844 381.768 139.895 382.195 139.203 383.051C138.512 383.906 138.166 385.087 138.166 386.593C138.166 388.169 138.497 389.361 139.159 390.17C139.827 390.979 140.791 391.383 142.051 391.383C142.596 391.383 143.123 391.33 143.633 391.225C144.143 391.113 144.673 390.973 145.224 390.803V392.604C144.216 392.985 143.073 393.176 141.796 393.176C139.915 393.176 138.471 392.607 137.463 391.471C136.455 390.328 135.951 388.696 135.951 386.575C135.951 385.239 136.194 384.07 136.681 383.068C137.173 382.066 137.882 381.299 138.808 380.766C139.733 380.232 140.82 379.966 142.068 379.966C143.381 379.966 144.594 380.241 145.707 380.792L144.951 382.541C144.518 382.336 144.058 382.157 143.571 382.005C143.091 381.847 142.584 381.768 142.051 381.768ZM156.395 388.122C156.395 389.71 155.987 390.949 155.173 391.84C154.358 392.73 153.225 393.176 151.771 393.176C150.863 393.176 150.061 392.971 149.363 392.561C148.666 392.15 148.13 391.562 147.755 390.794C147.38 390.026 147.192 389.136 147.192 388.122C147.192 386.546 147.597 385.315 148.405 384.431C149.214 383.546 150.354 383.104 151.824 383.104C153.23 383.104 154.344 383.558 155.164 384.466C155.984 385.368 156.395 386.587 156.395 388.122ZM149.319 388.122C149.319 390.366 150.148 391.488 151.807 391.488C153.447 391.488 154.268 390.366 154.268 388.122C154.268 385.901 153.441 384.791 151.789 384.791C150.922 384.791 150.292 385.078 149.899 385.652C149.513 386.227 149.319 387.05 149.319 388.122ZM166.968 393H164.894V387.006C164.894 386.262 164.753 385.708 164.472 385.345C164.19 384.976 163.751 384.791 163.153 384.791C162.356 384.791 161.771 385.052 161.396 385.573C161.026 386.089 160.842 386.95 160.842 388.157V393H158.776V383.279H160.394L160.684 384.554H160.789C161.059 384.091 161.448 383.733 161.958 383.481C162.474 383.229 163.039 383.104 163.654 383.104C165.148 383.104 166.139 383.613 166.625 384.633H166.766C167.053 384.152 167.457 383.777 167.979 383.508C168.5 383.238 169.098 383.104 169.771 383.104C170.932 383.104 171.775 383.396 172.303 383.982C172.836 384.568 173.103 385.462 173.103 386.663V393H171.037V387.006C171.037 386.262 170.894 385.708 170.606 385.345C170.325 384.976 169.886 384.791 169.288 384.791C168.485 384.791 167.896 385.043 167.521 385.547C167.152 386.045 166.968 386.812 166.968 387.85V393ZM184.177 393H182.103V387.006C182.103 386.262 181.962 385.708 181.681 385.345C181.399 384.976 180.96 384.791 180.362 384.791C179.565 384.791 178.979 385.052 178.604 385.573C178.235 386.089 178.051 386.95 178.051 388.157V393H175.985V383.279H177.603L177.893 384.554H177.998C178.268 384.091 178.657 383.733 179.167 383.481C179.683 383.229 180.248 383.104 180.863 383.104C182.357 383.104 183.348 383.613 183.834 384.633H183.975C184.262 384.152 184.666 383.777 185.188 383.508C185.709 383.238 186.307 383.104 186.98 383.104C188.141 383.104 188.984 383.396 189.512 383.982C190.045 384.568 190.312 385.462 190.312 386.663V393H188.246V387.006C188.246 386.262 188.103 385.708 187.815 385.345C187.534 384.976 187.095 384.791 186.497 384.791C185.694 384.791 185.105 385.043 184.73 385.547C184.361 386.045 184.177 386.812 184.177 387.85V393ZM200.05 393L199.76 391.726H199.654C199.367 392.177 198.957 392.531 198.424 392.789C197.896 393.047 197.293 393.176 196.613 393.176C195.436 393.176 194.557 392.883 193.977 392.297C193.396 391.711 193.106 390.823 193.106 389.634V383.279H195.189V389.273C195.189 390.018 195.342 390.577 195.646 390.952C195.951 391.321 196.429 391.506 197.079 391.506C197.946 391.506 198.582 391.248 198.986 390.732C199.396 390.211 199.602 389.341 199.602 388.122V383.279H201.676V393H200.05ZM213.172 393H211.098V387.023C211.098 386.273 210.945 385.714 210.641 385.345C210.342 384.976 209.864 384.791 209.208 384.791C208.335 384.791 207.696 385.049 207.292 385.564C206.888 386.08 206.686 386.944 206.686 388.157V393H204.62V383.279H206.237L206.527 384.554H206.633C206.926 384.091 207.342 383.733 207.881 383.481C208.42 383.229 209.018 383.104 209.674 383.104C212.006 383.104 213.172 384.29 213.172 386.663V393ZM218.111 393H216.046V383.279H218.111V393ZM215.923 380.704C215.923 380.335 216.022 380.051 216.222 379.852C216.427 379.652 216.717 379.553 217.092 379.553C217.455 379.553 217.736 379.652 217.936 379.852C218.141 380.051 218.243 380.335 218.243 380.704C218.243 381.056 218.141 381.334 217.936 381.539C217.736 381.738 217.455 381.838 217.092 381.838C216.717 381.838 216.427 381.738 216.222 381.539C216.022 381.334 215.923 381.056 215.923 380.704ZM224.993 393.176C223.522 393.176 222.403 392.748 221.636 391.893C220.874 391.031 220.493 389.798 220.493 388.192C220.493 386.558 220.892 385.301 221.688 384.422C222.491 383.543 223.648 383.104 225.16 383.104C226.186 383.104 227.108 383.294 227.929 383.675L227.305 385.336C226.432 384.996 225.711 384.826 225.143 384.826C223.461 384.826 222.62 385.942 222.62 388.175C222.62 389.265 222.828 390.085 223.244 390.636C223.666 391.181 224.281 391.453 225.09 391.453C226.01 391.453 226.88 391.225 227.7 390.768V392.569C227.331 392.786 226.936 392.941 226.514 393.035C226.098 393.129 225.591 393.176 224.993 393.176ZM236.067 393L235.654 391.646H235.584C235.115 392.238 234.644 392.643 234.169 392.859C233.694 393.07 233.085 393.176 232.341 393.176C231.386 393.176 230.639 392.918 230.1 392.402C229.566 391.887 229.3 391.157 229.3 390.214C229.3 389.212 229.672 388.456 230.416 387.946C231.16 387.437 232.294 387.158 233.817 387.111L235.496 387.059V386.54C235.496 385.919 235.35 385.456 235.057 385.151C234.77 384.841 234.321 384.686 233.712 384.686C233.214 384.686 232.736 384.759 232.279 384.905C231.822 385.052 231.383 385.225 230.961 385.424L230.293 383.947C230.82 383.672 231.397 383.464 232.024 383.323C232.651 383.177 233.243 383.104 233.8 383.104C235.036 383.104 235.968 383.373 236.595 383.912C237.228 384.451 237.544 385.298 237.544 386.452V393H236.067ZM232.991 391.594C233.741 391.594 234.342 391.386 234.793 390.97C235.25 390.548 235.479 389.959 235.479 389.203V388.359L234.23 388.412C233.258 388.447 232.549 388.611 232.104 388.904C231.664 389.191 231.444 389.634 231.444 390.231C231.444 390.665 231.573 391.002 231.831 391.242C232.089 391.477 232.476 391.594 232.991 391.594ZM244.048 391.506C244.552 391.506 245.056 391.427 245.56 391.269V392.824C245.331 392.924 245.035 393.006 244.672 393.07C244.314 393.141 243.942 393.176 243.556 393.176C241.599 393.176 240.62 392.145 240.62 390.082V384.844H239.293V383.93L240.717 383.174L241.42 381.117H242.694V383.279H245.463V384.844H242.694V390.047C242.694 390.545 242.817 390.914 243.063 391.154C243.315 391.389 243.644 391.506 244.048 391.506ZM249.576 393H247.511V383.279H249.576V393ZM247.388 380.704C247.388 380.335 247.487 380.051 247.687 379.852C247.892 379.652 248.182 379.553 248.557 379.553C248.92 379.553 249.201 379.652 249.4 379.852C249.605 380.051 249.708 380.335 249.708 380.704C249.708 381.056 249.605 381.334 249.4 381.539C249.201 381.738 248.92 381.838 248.557 381.838C248.182 381.838 247.892 381.738 247.687 381.539C247.487 381.334 247.388 381.056 247.388 380.704ZM261.16 388.122C261.16 389.71 260.753 390.949 259.938 391.84C259.124 392.73 257.99 393.176 256.537 393.176C255.629 393.176 254.826 392.971 254.129 392.561C253.432 392.15 252.896 391.562 252.521 390.794C252.146 390.026 251.958 389.136 251.958 388.122C251.958 386.546 252.362 385.315 253.171 384.431C253.979 383.546 255.119 383.104 256.59 383.104C257.996 383.104 259.109 383.558 259.93 384.466C260.75 385.368 261.16 386.587 261.16 388.122ZM254.085 388.122C254.085 390.366 254.914 391.488 256.572 391.488C258.213 391.488 259.033 390.366 259.033 388.122C259.033 385.901 258.207 384.791 256.555 384.791C255.688 384.791 255.058 385.078 254.665 385.652C254.278 386.227 254.085 387.05 254.085 388.122ZM272.094 393H270.02V387.023C270.02 386.273 269.867 385.714 269.562 385.345C269.264 384.976 268.786 384.791 268.13 384.791C267.257 384.791 266.618 385.049 266.214 385.564C265.81 386.08 265.607 386.944 265.607 388.157V393H263.542V383.279H265.159L265.449 384.554H265.555C265.848 384.091 266.264 383.733 266.803 383.481C267.342 383.229 267.939 383.104 268.596 383.104C270.928 383.104 272.094 384.29 272.094 386.663V393Z" fill="#222222"/>
<path d="M50 426L275 425L238.5 496H50V426Z" fill="url(#paint4_linear_50_119)"/>
<path d="M58.5682 468V455.15H60.6687V466.198H66.1092V468H58.5682ZM72.3494 468.176C70.8377 468.176 69.6541 467.736 68.7986 466.857C67.949 465.973 67.5242 464.757 67.5242 463.21C67.5242 461.622 67.9197 460.374 68.7107 459.466C69.5018 458.558 70.5887 458.104 71.9715 458.104C73.2547 458.104 74.2684 458.493 75.0125 459.272C75.7566 460.052 76.1287 461.124 76.1287 462.489V463.605H69.6512C69.6805 464.549 69.9353 465.275 70.4158 465.785C70.8963 466.289 71.573 466.541 72.4461 466.541C73.0203 466.541 73.5535 466.488 74.0457 466.383C74.5437 466.271 75.077 466.09 75.6453 465.838V467.517C75.1414 467.757 74.6316 467.927 74.116 468.026C73.6004 468.126 73.0115 468.176 72.3494 468.176ZM71.9715 459.668C71.3152 459.668 70.7879 459.876 70.3895 460.292C69.9969 460.708 69.7625 461.314 69.6863 462.111H74.0984C74.0867 461.309 73.8934 460.702 73.5184 460.292C73.1434 459.876 72.6277 459.668 71.9715 459.668ZM85.0057 465.231C85.0057 466.181 84.66 466.91 83.9686 467.42C83.2771 467.924 82.2869 468.176 80.9978 468.176C79.7029 468.176 78.6629 467.979 77.8777 467.587V465.803C79.0203 466.33 80.0838 466.594 81.0682 466.594C82.3396 466.594 82.9754 466.21 82.9754 465.442C82.9754 465.196 82.9051 464.991 82.7645 464.827C82.6238 464.663 82.3924 464.493 82.0701 464.317C81.7478 464.142 81.2996 463.942 80.7254 463.72C79.6062 463.286 78.8475 462.853 78.449 462.419C78.0564 461.985 77.8602 461.423 77.8602 460.731C77.8602 459.899 78.1941 459.255 78.8621 458.798C79.5359 458.335 80.45 458.104 81.6043 458.104C82.7469 458.104 83.8279 458.335 84.8475 458.798L84.1795 460.354C83.1307 459.92 82.2488 459.703 81.534 459.703C80.4441 459.703 79.8992 460.014 79.8992 460.635C79.8992 460.939 80.0398 461.197 80.3211 461.408C80.6082 461.619 81.2293 461.909 82.1844 462.278C82.9871 462.589 83.5701 462.873 83.9334 463.131C84.2967 463.389 84.5662 463.688 84.742 464.027C84.9178 464.361 85.0057 464.763 85.0057 465.231ZM93.7771 465.231C93.7771 466.181 93.4314 466.91 92.74 467.42C92.0486 467.924 91.0584 468.176 89.7693 468.176C88.4744 468.176 87.4344 467.979 86.6492 467.587V465.803C87.7918 466.33 88.8553 466.594 89.8396 466.594C91.1111 466.594 91.7469 466.21 91.7469 465.442C91.7469 465.196 91.6766 464.991 91.5359 464.827C91.3953 464.663 91.1639 464.493 90.8416 464.317C90.5193 464.142 90.0711 463.942 89.4969 463.72C88.3777 463.286 87.6189 462.853 87.2205 462.419C86.8279 461.985 86.6316 461.423 86.6316 460.731C86.6316 459.899 86.9656 459.255 87.6336 458.798C88.3074 458.335 89.2215 458.104 90.3758 458.104C91.5184 458.104 92.5994 458.335 93.6189 458.798L92.951 460.354C91.9021 459.92 91.0203 459.703 90.3055 459.703C89.2156 459.703 88.6707 460.014 88.6707 460.635C88.6707 460.939 88.8113 461.197 89.0926 461.408C89.3797 461.619 90.0008 461.909 90.9559 462.278C91.7586 462.589 92.3416 462.873 92.7049 463.131C93.0682 463.389 93.3377 463.688 93.5135 464.027C93.6893 464.361 93.7771 464.763 93.7771 465.231ZM112.77 468H110.485L108.305 460.336C108.212 460.002 108.095 459.521 107.954 458.895C107.813 458.262 107.728 457.822 107.699 457.576C107.64 457.951 107.544 458.438 107.409 459.035C107.28 459.633 107.172 460.078 107.084 460.371L104.957 468H102.672L101.011 461.566L99.323 455.15H101.468L103.304 462.639C103.592 463.84 103.797 464.9 103.92 465.82C103.984 465.322 104.081 464.766 104.21 464.15C104.339 463.535 104.456 463.037 104.561 462.656L106.653 455.15H108.736L110.881 462.691C111.086 463.389 111.303 464.432 111.531 465.82C111.619 464.982 111.83 463.916 112.164 462.621L113.992 455.15H116.119L112.77 468ZM126.349 463.122C126.349 464.71 125.942 465.949 125.128 466.84C124.313 467.73 123.179 468.176 121.726 468.176C120.818 468.176 120.015 467.971 119.318 467.561C118.621 467.15 118.085 466.562 117.71 465.794C117.335 465.026 117.147 464.136 117.147 463.122C117.147 461.546 117.552 460.315 118.36 459.431C119.169 458.546 120.308 458.104 121.779 458.104C123.185 458.104 124.299 458.558 125.119 459.466C125.939 460.368 126.349 461.587 126.349 463.122ZM119.274 463.122C119.274 465.366 120.103 466.488 121.762 466.488C123.402 466.488 124.222 465.366 124.222 463.122C124.222 460.901 123.396 459.791 121.744 459.791C120.877 459.791 120.247 460.078 119.854 460.652C119.468 461.227 119.274 462.05 119.274 463.122ZM133.662 458.104C134.078 458.104 134.421 458.133 134.69 458.191L134.488 460.116C134.195 460.046 133.89 460.011 133.574 460.011C132.748 460.011 132.077 460.28 131.561 460.819C131.052 461.358 130.797 462.059 130.797 462.92V468H128.731V458.279H130.348L130.621 459.993H130.726C131.049 459.413 131.468 458.953 131.983 458.613C132.505 458.273 133.064 458.104 133.662 458.104ZM138.496 462.867L139.665 461.408L142.6 458.279H144.982L141.071 462.454L145.228 468H142.803L139.682 463.737L138.549 464.669V468H136.501V454.324H138.549V460.995L138.443 462.867H138.496ZM153.78 468H151.697V455.15H158.948V456.926H153.78V460.942H158.623V462.727H153.78V468ZM169.679 463.122C169.679 464.71 169.272 465.949 168.458 466.84C167.643 467.73 166.51 468.176 165.056 468.176C164.148 468.176 163.346 467.971 162.648 467.561C161.951 467.15 161.415 466.562 161.04 465.794C160.665 465.026 160.477 464.136 160.477 463.122C160.477 461.546 160.882 460.315 161.69 459.431C162.499 458.546 163.638 458.104 165.109 458.104C166.515 458.104 167.629 458.558 168.449 459.466C169.269 460.368 169.679 461.587 169.679 463.122ZM162.604 463.122C162.604 465.366 163.433 466.488 165.092 466.488C166.732 466.488 167.553 465.366 167.553 463.122C167.553 460.901 166.726 459.791 165.074 459.791C164.207 459.791 163.577 460.078 163.184 460.652C162.798 461.227 162.604 462.05 162.604 463.122ZM176.992 458.104C177.408 458.104 177.751 458.133 178.02 458.191L177.818 460.116C177.525 460.046 177.221 460.011 176.904 460.011C176.078 460.011 175.407 460.28 174.891 460.819C174.382 461.358 174.127 462.059 174.127 462.92V468H172.061V458.279H173.679L173.951 459.993H174.056C174.379 459.413 174.798 458.953 175.313 458.613C175.835 458.273 176.394 458.104 176.992 458.104ZM183.751 468.176C182.28 468.176 181.161 467.748 180.393 466.893C179.632 466.031 179.251 464.798 179.251 463.192C179.251 461.558 179.649 460.301 180.446 459.422C181.249 458.543 182.406 458.104 183.918 458.104C184.943 458.104 185.866 458.294 186.686 458.675L186.062 460.336C185.189 459.996 184.469 459.826 183.9 459.826C182.219 459.826 181.378 460.942 181.378 463.175C181.378 464.265 181.586 465.085 182.002 465.636C182.424 466.181 183.039 466.453 183.847 466.453C184.767 466.453 185.637 466.225 186.458 465.768V467.569C186.089 467.786 185.693 467.941 185.271 468.035C184.855 468.129 184.348 468.176 183.751 468.176ZM192.988 468.176C191.476 468.176 190.293 467.736 189.437 466.857C188.588 465.973 188.163 464.757 188.163 463.21C188.163 461.622 188.558 460.374 189.349 459.466C190.14 458.558 191.227 458.104 192.61 458.104C193.893 458.104 194.907 458.493 195.651 459.272C196.395 460.052 196.767 461.124 196.767 462.489V463.605H190.29C190.319 464.549 190.574 465.275 191.054 465.785C191.535 466.289 192.212 466.541 193.085 466.541C193.659 466.541 194.192 466.488 194.684 466.383C195.182 466.271 195.716 466.09 196.284 465.838V467.517C195.78 467.757 195.27 467.927 194.755 468.026C194.239 468.126 193.65 468.176 192.988 468.176ZM192.61 459.668C191.954 459.668 191.427 459.876 191.028 460.292C190.636 460.708 190.401 461.314 190.325 462.111H194.737C194.725 461.309 194.532 460.702 194.157 460.292C193.782 459.876 193.266 459.668 192.61 459.668Z" fill="black"/>
<rect x="328" y="356" width="220" height="68" fill="#9C9C9C"/>
<rect x="359" y="296" width="155" height="49" fill="#9C9C9C"/>
<rect x="385" y="246" width="100" height="32" fill="#9C9C9C"/>
<rect x="411" y="197" width="46" height="22" fill="#9C9C9C"/>
<rect x="293" y="425" width="292" height="68" fill="#9C9C9C"/>
<path d="M292.5 424.5L419 487L414.5 587L257 494.5L292.5 424.5Z" fill="#FECD17"/>
<path d="M418.5 487L585 425L622.5 497L414.5 586.5L418.5 487Z" fill="#CCA512"/>
<path d="M328 356.5L423.5 400.5L419 480L297.5 416L328 356.5Z" fill="#FA3440"/>
<path d="M423.5 400.639L548 356L580 416.5L419 480.5L423.5 400.639Z" fill="#AD242C"/>
<path d="M359 296L426.5 327L423 388L333.5 346L359 296Z" fill="#36D651"/>
<path d="M426 327L514 296L542 346L423 388L426 327Z" fill="#29A33E"/>
<path d="M384.5 246L428.5 266L427 315.5L364 286L384.5 246Z" fill="#04D9E1"/>
<path d="M428.5 266L485 246L508 286L427 315.5L428.5 266Z" fill="#03A7AD"/>
<path d="M410 196L432 204.5L429.5 255.5L389.5 236L410 196Z" fill="#DD62DA"/>
<path d="M432 204.5L457 197L479.5 236L429.5 255.5L432 204.5Z" fill="#AB4CA9"/>
<path d="M412.5 192L432.5 152V201L412.5 192Z" fill="#525252"/>
<path d="M432.5 152L455 193L432.5 201V152Z" fill="#1F1F1F"/>
<defs>
<linearGradient id="paint0_linear_50_119" x1="132.073" y1="216" x2="364.5" y2="216" gradientUnits="userSpaceOnUse">
<stop stop-color="#DD62DA"/>
<stop offset="1" stop-color="#DD62DA" stop-opacity="0.1"/>
</linearGradient>
<linearGradient id="paint1_linear_50_119" x1="129.017" y1="266" x2="363.202" y2="266" gradientUnits="userSpaceOnUse">
<stop stop-color="#04D9E1"/>
<stop offset="1" stop-color="#05DAE2" stop-opacity="0.1"/>
</linearGradient>
<linearGradient id="paint2_linear_50_119" x1="125.895" y1="321" x2="350.826" y2="321" gradientUnits="userSpaceOnUse">
<stop stop-color="#36D651"/>
<stop offset="1" stop-color="#37D752" stop-opacity="0.1"/>
</linearGradient>
<linearGradient id="paint3_linear_50_119" x1="120.86" y1="386" x2="330.867" y2="386" gradientUnits="userSpaceOnUse">
<stop stop-color="#F9333F"/>
<stop offset="1" stop-color="#F7333D" stop-opacity="0"/>
</linearGradient>
<linearGradient id="paint4_linear_50_119" x1="115.381" y1="461" x2="309.151" y2="461" gradientUnits="userSpaceOnUse">
<stop stop-color="#FDCC16"/>
<stop offset="1" stop-color="#FDD12F" stop-opacity="0"/>
</linearGradient>
</defs>
</svg>
