<svg width="720" height="720" viewBox="0 0 720 720" fill="none" xmlns="http://www.w3.org/2000/svg">
<rect width="720" height="720" fill="#F1F1F1"/>
<g clip-path="url(#clip0_25_27)">
<rect x="314.726" y="-391" width="1087" height="5.00002" transform="rotate(45 314.726 -391)" fill="#DBDBDB"/>
<rect x="145.02" y="-221.294" width="1087" height="5.00002" transform="rotate(45 145.02 -221.294)" fill="#DBDBDB"/>
<rect x="-24.6857" y="-51.5887" width="1087" height="5.00002" transform="rotate(45 -24.6857 -51.5887)" fill="#DBDBDB"/>
<rect x="229.873" y="-306.147" width="1087" height="5.00002" transform="rotate(45 229.873 -306.147)" fill="#DBDBDB"/>
<rect x="60.1671" y="-136.442" width="1087" height="5.00002" transform="rotate(45 60.1671 -136.442)" fill="#DBDBDB"/>
<rect x="-109.538" y="33.264" width="1087" height="5.00002" transform="rotate(45 -109.538 33.264)" fill="#DBDBDB"/>
<rect x="293.512" y="-369.787" width="1087" height="5.00002" transform="rotate(45 293.512 -369.787)" fill="#DBDBDB"/>
<rect x="123.807" y="-200.081" width="1087" height="5.00002" transform="rotate(45 123.807 -200.081)" fill="#DBDBDB"/>
<rect x="-45.8988" y="-30.3755" width="1087" height="5.00002" transform="rotate(45 -45.8988 -30.3755)" fill="#DBDBDB"/>
<rect x="208.66" y="-284.934" width="1087" height="5.00002" transform="rotate(45 208.66 -284.934)" fill="#DBDBDB"/>
<rect x="38.954" y="-115.228" width="1087" height="5.00002" transform="rotate(45 38.954 -115.228)" fill="#DBDBDB"/>
<rect x="-130.752" y="54.4772" width="1087" height="5.00002" transform="rotate(45 -130.752 54.4772)" fill="#DBDBDB"/>
<rect x="304.119" y="-380.393" width="1087" height="5.00002" transform="rotate(45 304.119 -380.393)" fill="#DBDBDB"/>
<rect x="134.413" y="-210.688" width="1087" height="5.00002" transform="rotate(45 134.413 -210.688)" fill="#DBDBDB"/>
<rect x="-35.2922" y="-40.9822" width="1087" height="5.00002" transform="rotate(45 -35.2922 -40.9822)" fill="#DBDBDB"/>
<rect x="219.266" y="-295.541" width="1087" height="5.00002" transform="rotate(45 219.266 -295.541)" fill="#DBDBDB"/>
<rect x="49.5605" y="-125.835" width="1087" height="5.00002" transform="rotate(45 49.5605 -125.835)" fill="#DBDBDB"/>
<rect x="-120.145" y="43.8706" width="1087" height="5.00002" transform="rotate(45 -120.145 43.8706)" fill="#DBDBDB"/>
<rect x="282.906" y="-359.18" width="1087" height="5.00002" transform="rotate(45 282.906 -359.18)" fill="#DBDBDB"/>
<rect x="113.2" y="-189.475" width="1087" height="5.00002" transform="rotate(45 113.2 -189.475)" fill="#DBDBDB"/>
<rect x="-56.5055" y="-19.769" width="1087" height="5.00002" transform="rotate(45 -56.5055 -19.769)" fill="#DBDBDB"/>
<rect x="198.053" y="-274.327" width="1087" height="5.00002" transform="rotate(45 198.053 -274.327)" fill="#DBDBDB"/>
<rect x="28.3473" y="-104.622" width="1087" height="5.00002" transform="rotate(45 28.3473 -104.622)" fill="#DBDBDB"/>
<rect x="-141.358" y="65.0838" width="1087" height="5.00002" transform="rotate(45 -141.358 65.0838)" fill="#DBDBDB"/>
<rect x="272.299" y="-348.574" width="1087" height="5.00002" transform="rotate(45 272.299 -348.574)" fill="#DBDBDB"/>
<rect x="102.594" y="-178.868" width="1087" height="5.00002" transform="rotate(45 102.594 -178.868)" fill="#DBDBDB"/>
<rect x="-67.1121" y="-9.16235" width="1087" height="5.00002" transform="rotate(45 -67.1121 -9.16235)" fill="#DBDBDB"/>
<rect x="187.446" y="-263.721" width="1087" height="5.00002" transform="rotate(45 187.446 -263.721)" fill="#DBDBDB"/>
<rect x="17.7407" y="-94.0152" width="1087" height="5.00002" transform="rotate(45 17.7407 -94.0152)" fill="#DBDBDB"/>
<rect x="-151.965" y="75.6905" width="1087" height="5.00002" transform="rotate(45 -151.965 75.6905)" fill="#DBDBDB"/>
<rect x="251.086" y="-327.36" width="1087" height="5.00002" transform="rotate(45 251.086 -327.36)" fill="#DBDBDB"/>
<rect x="81.3804" y="-157.655" width="1087" height="5.00002" transform="rotate(45 81.3804 -157.655)" fill="#DBDBDB"/>
<rect x="-88.3253" y="12.0508" width="1087" height="5.00002" transform="rotate(45 -88.3253 12.0508)" fill="#DBDBDB"/>
<rect x="166.233" y="-242.508" width="1087" height="5.00002" transform="rotate(45 166.233 -242.508)" fill="#DBDBDB"/>
<rect x="-3.47241" y="-72.802" width="1087" height="5.00002" transform="rotate(45 -3.47241 -72.802)" fill="#DBDBDB"/>
<rect x="-173.178" y="96.9037" width="1087" height="5.00002" transform="rotate(45 -173.178 96.9037)" fill="#DBDBDB"/>
<rect x="261.693" y="-337.967" width="1087" height="5.00002" transform="rotate(45 261.693 -337.967)" fill="#DBDBDB"/>
<rect x="91.9869" y="-168.261" width="1087" height="5.00002" transform="rotate(45 91.9869 -168.261)" fill="#DBDBDB"/>
<rect x="-77.7186" y="1.44424" width="1087" height="5.00002" transform="rotate(45 -77.7186 1.44424)" fill="#DBDBDB"/>
<rect x="176.84" y="-253.114" width="1087" height="5.00002" transform="rotate(45 176.84 -253.114)" fill="#DBDBDB"/>
<rect x="7.13416" y="-83.4086" width="1087" height="5.00002" transform="rotate(45 7.13416 -83.4086)" fill="#DBDBDB"/>
<rect x="-162.572" y="86.2971" width="1087" height="5.00002" transform="rotate(45 -162.572 86.2971)" fill="#DBDBDB"/>
<rect x="240.479" y="-316.754" width="1087" height="5.00002" transform="rotate(45 240.479 -316.754)" fill="#DBDBDB"/>
<rect x="70.7738" y="-147.048" width="1087" height="5.00002" transform="rotate(45 70.7738 -147.048)" fill="#DBDBDB"/>
<rect x="-98.9319" y="22.6574" width="1087" height="5.00002" transform="rotate(45 -98.9319 22.6574)" fill="#DBDBDB"/>
<rect x="155.627" y="-231.901" width="1087" height="5.00002" transform="rotate(45 155.627 -231.901)" fill="#DBDBDB"/>
<rect x="-14.0791" y="-62.1954" width="1087" height="5.00002" transform="rotate(45 -14.0791 -62.1954)" fill="#DBDBDB"/>
<rect x="-183.785" y="107.51" width="1087" height="5.00002" transform="rotate(45 -183.785 107.51)" fill="#DBDBDB"/>
<rect x="-194.391" y="118.117" width="1087" height="5.00002" transform="rotate(45 -194.391 118.117)" fill="#DBDBDB"/>
<rect x="-268.637" y="192.363" width="1087" height="5.00002" transform="rotate(45 -268.637 192.363)" fill="#DBDBDB"/>
<rect x="-374.704" y="298.429" width="1087" height="5.00002" transform="rotate(45 -374.704 298.429)" fill="#DBDBDB"/>
<rect x="-215.605" y="139.33" width="1087" height="5.00002" transform="rotate(45 -215.605 139.33)" fill="#DBDBDB"/>
<rect x="-289.851" y="213.576" width="1087" height="5.00002" transform="rotate(45 -289.851 213.576)" fill="#DBDBDB"/>
<rect x="-395.917" y="319.642" width="1087" height="5.00002" transform="rotate(45 -395.917 319.642)" fill="#DBDBDB"/>
<rect x="-204.998" y="128.723" width="1087" height="5.00002" transform="rotate(45 -204.998 128.723)" fill="#DBDBDB"/>
<rect x="-279.244" y="202.97" width="1087" height="5.00002" transform="rotate(45 -279.244 202.97)" fill="#DBDBDB"/>
<rect x="-385.31" y="309.036" width="1087" height="5.00002" transform="rotate(45 -385.31 309.036)" fill="#DBDBDB"/>
<rect x="-226.211" y="149.937" width="1087" height="5.00002" transform="rotate(45 -226.211 149.937)" fill="#DBDBDB"/>
<rect x="-332.277" y="256.003" width="1087" height="5.00002" transform="rotate(45 -332.277 256.003)" fill="#DBDBDB"/>
<rect x="-300.457" y="224.183" width="1087" height="5.00002" transform="rotate(45 -300.457 224.183)" fill="#DBDBDB"/>
<rect x="-406.523" y="330.249" width="1087" height="5.00002" transform="rotate(45 -406.523 330.249)" fill="#DBDBDB"/>
<rect x="-236.818" y="160.543" width="1087" height="5.00002" transform="rotate(45 -236.818 160.543)" fill="#DBDBDB"/>
<rect x="-342.884" y="266.609" width="1087" height="5.00002" transform="rotate(45 -342.884 266.609)" fill="#DBDBDB"/>
<rect x="-311.064" y="234.789" width="1087" height="5.00002" transform="rotate(45 -311.064 234.789)" fill="#DBDBDB"/>
<rect x="-417.13" y="340.855" width="1087" height="5.00002" transform="rotate(45 -417.13 340.855)" fill="#DBDBDB"/>
<rect x="-258.031" y="181.756" width="1087" height="5.00002" transform="rotate(45 -258.031 181.756)" fill="#DBDBDB"/>
<rect x="-364.097" y="287.822" width="1087" height="5.00002" transform="rotate(45 -364.097 287.822)" fill="#DBDBDB"/>
<rect x="-313.185" y="253.881" width="1087" height="5.00002" transform="rotate(45 -313.185 253.881)" fill="#DBDBDB"/>
<rect x="-419.251" y="359.947" width="1087" height="5.00002" transform="rotate(45 -419.251 359.947)" fill="#DBDBDB"/>
<rect x="-247.424" y="171.15" width="1087" height="5.00002" transform="rotate(45 -247.424 171.15)" fill="#DBDBDB"/>
<rect x="-353.49" y="277.216" width="1087" height="5.00002" transform="rotate(45 -353.49 277.216)" fill="#DBDBDB"/>
<rect x="-440.464" y="381.161" width="1087" height="5.00002" transform="rotate(45 -440.464 381.161)" fill="#DBDBDB"/>
<rect x="-429.858" y="370.554" width="1087" height="5.00002" transform="rotate(45 -429.858 370.554)" fill="#DBDBDB"/>
</g>
<path d="M159.143 35.84H167.183C172.223 35.84 174.743 38.04 174.743 42.44V67.34C174.743 71.78 172.223 74 167.183 74H159.143C154.063 74 151.523 71.78 151.523 67.34V42.44C151.523 38.04 154.063 35.84 159.143 35.84ZM166.163 66.2V43.64C166.163 42.64 165.643 42.14 164.603 42.14H161.723C160.643 42.14 160.103 42.64 160.103 43.64V66.2C160.103 67.2 160.643 67.7 161.723 67.7H164.603C165.643 67.7 166.163 67.2 166.163 66.2ZM200.408 42.14H188.468V52.64H198.488V58.58H188.468V74H179.888V35.84H200.408V42.14ZM224.372 42.14H212.432V52.64H222.452V58.58H212.432V74H203.852V35.84H224.372V42.14ZM227.997 35.84H236.517V74H227.997V35.84ZM264.674 49.22H256.034V43.22C256.034 42.22 255.514 41.72 254.474 41.72H252.014C250.934 41.72 250.394 42.22 250.394 43.22V66.62C250.394 67.18 250.514 67.58 250.754 67.82C250.994 68.02 251.414 68.12 252.014 68.12H254.474C255.034 68.12 255.434 68.02 255.674 67.82C255.914 67.58 256.034 67.18 256.034 66.62V60.8H264.674V67.4C264.674 71.8 262.134 74 257.054 74H249.374C244.334 74 241.814 71.8 241.814 67.4V42.44C241.814 38.04 244.334 35.84 249.374 35.84H257.054C262.134 35.84 264.674 38.04 264.674 42.44V49.22ZM277.706 67.7H289.946V74H269.126V35.84H289.466V42.14H277.706V51.44H287.726V57.74H277.706V67.7ZM321.799 74L320.479 67.1H311.779L310.459 74H301.999L310.639 35.84H321.559L330.439 74H321.799ZM312.979 60.86H319.219L316.099 44.72L312.979 60.86ZM347.983 35.84H356.563V67.34C356.563 71.78 354.023 74 348.943 74H340.903C335.863 74 333.343 71.78 333.343 67.34V35.84H341.923V66.2C341.923 67.2 342.443 67.7 343.483 67.7H346.363C347.443 67.7 347.983 67.2 347.983 66.2V35.84ZM382.04 35.84V42.14H375.02V74H366.44V42.14H359.48V35.84H382.04ZM392.404 35.84H400.444C405.484 35.84 408.004 38.04 408.004 42.44V67.34C408.004 71.78 405.484 74 400.444 74H392.404C387.324 74 384.784 71.78 384.784 67.34V42.44C384.784 38.04 387.324 35.84 392.404 35.84ZM399.424 66.2V43.64C399.424 42.64 398.904 42.14 397.864 42.14H394.984C393.904 42.14 393.364 42.64 393.364 43.64V66.2C393.364 67.2 393.904 67.7 394.984 67.7H397.864C398.904 67.7 399.424 67.2 399.424 66.2ZM420.709 74H413.149V35.84H422.509L428.809 57.44L435.109 35.84H444.469V74H436.909V48.38L431.989 65.72H425.629L420.709 48.44V74ZM467.288 74L465.968 67.1H457.268L455.948 74H447.488L456.128 35.84H467.048L475.928 74H467.288ZM458.468 60.86H464.708L461.588 44.72L458.468 60.86ZM499.051 35.84V42.14H492.031V74H483.451V42.14H476.491V35.84H499.051ZM502.216 35.84H510.736V74H502.216V35.84ZM523.713 35.84H531.753C536.793 35.84 539.313 38.04 539.313 42.44V67.34C539.313 71.78 536.793 74 531.753 74H523.713C518.633 74 516.093 71.78 516.093 67.34V42.44C516.093 38.04 518.633 35.84 523.713 35.84ZM530.733 66.2V43.64C530.733 42.64 530.213 42.14 529.173 42.14H526.293C525.213 42.14 524.673 42.64 524.673 43.64V66.2C524.673 67.2 525.213 67.7 526.293 67.7H529.173C530.213 67.7 530.733 67.2 530.733 66.2ZM560.418 35.84H568.278V74H560.598L552.258 51.14V74H544.458V35.84H552.198L560.418 58.64V35.84Z" fill="black"/>
<g filter="url(#filter0_d_25_27)">
<rect x="261" y="118" width="1" height="561" fill="#C4C4C4"/>
</g>
<path fill-rule="evenodd" clip-rule="evenodd" d="M545.031 108H263.697V168H545.031V108ZM571 137.434L545.031 108V168L571 137.434Z" fill="#2C76E6"/>
<path d="M228.987 93L264.434 107.622V167.797L228.987 152.988V93Z" fill="#2055A6"/>
<path d="M298.134 127.344H301.077L305.748 149.214H302.859L301.86 143.706H297.405L296.352 149.214H293.49L298.134 127.344ZM301.455 141.519L299.619 131.664L297.81 141.519H301.455ZM311.342 149.43C309.992 149.43 309.002 148.944 308.372 147.972C307.742 146.982 307.427 145.353 307.427 143.085V140.061C307.427 137.991 307.697 136.362 308.237 135.174C308.795 133.986 309.803 133.392 311.261 133.392C312.179 133.392 313.043 133.797 313.853 134.607V127.344H316.742V149.214H313.853V148.215C313.097 149.025 312.26 149.43 311.342 149.43ZM312.071 147.162C312.647 147.162 313.241 146.964 313.853 146.568V136.335C313.187 135.885 312.575 135.66 312.017 135.66C310.883 135.66 310.316 136.749 310.316 138.927V143.328C310.316 144.588 310.433 145.542 310.667 146.19C310.901 146.838 311.369 147.162 312.071 147.162ZM319.668 133.608H322.341V135.093C322.863 134.517 323.43 134.085 324.042 133.797C324.672 133.491 325.329 133.338 326.013 133.338C327.345 133.338 328.191 133.995 328.551 135.309C329.631 133.995 330.927 133.338 332.439 133.338C333.249 133.338 333.906 133.635 334.41 134.229C334.932 134.823 335.193 135.732 335.193 136.956V149.214H332.547V137.145C332.547 136.425 332.43 135.93 332.196 135.66C331.962 135.372 331.629 135.228 331.197 135.228C330.801 135.228 330.387 135.345 329.955 135.579C329.523 135.795 329.127 136.101 328.767 136.497V136.956V149.214H326.121V137.145C326.121 136.425 326.004 135.93 325.77 135.66C325.536 135.372 325.203 135.228 324.771 135.228C324.393 135.228 323.988 135.345 323.556 135.579C323.124 135.795 322.719 136.101 322.341 136.497V149.214H319.668V133.608ZM338.208 128.262H341.097V131.286H338.208V128.262ZM338.208 133.608H341.097V149.214H338.208V133.608ZM344.189 133.608H347.078V135.147C348.32 133.977 349.589 133.392 350.885 133.392C351.731 133.392 352.334 133.698 352.694 134.31C353.054 134.922 353.234 135.678 353.234 136.578V149.214H350.345V137.415C350.345 136.821 350.255 136.38 350.075 136.092C349.895 135.804 349.571 135.66 349.103 135.66C348.527 135.66 347.852 135.984 347.078 136.632V149.214H344.189V133.608ZM356.244 128.262H359.133V131.286H356.244V128.262ZM356.244 133.608H359.133V149.214H356.244V133.608ZM365.843 149.43C364.583 149.43 363.557 149.034 362.765 148.242C361.991 147.45 361.55 146.388 361.442 145.056L363.845 144.327C363.989 145.335 364.232 146.082 364.574 146.568C364.934 147.054 365.438 147.297 366.086 147.297C366.59 147.297 366.977 147.153 367.247 146.865C367.535 146.559 367.679 146.154 367.679 145.65C367.679 145.2 367.58 144.795 367.382 144.435C367.184 144.075 366.86 143.706 366.41 143.328L363.737 141.033C363.125 140.511 362.648 139.962 362.306 139.386C361.982 138.792 361.82 138.072 361.82 137.226C361.82 136.02 362.18 135.084 362.9 134.418C363.62 133.734 364.601 133.392 365.843 133.392C367.031 133.392 367.958 133.779 368.624 134.553C369.308 135.309 369.704 136.29 369.812 137.496L367.868 138.225C367.742 137.343 367.535 136.677 367.247 136.227C366.959 135.759 366.527 135.525 365.951 135.525C365.483 135.525 365.105 135.678 364.817 135.984C364.547 136.29 364.412 136.668 364.412 137.118C364.412 137.694 364.673 138.216 365.195 138.684L367.949 141.222C368.651 141.87 369.191 142.509 369.569 143.139C369.965 143.769 370.163 144.534 370.163 145.434C370.163 146.73 369.776 147.72 369.002 148.404C368.228 149.088 367.175 149.43 365.843 149.43ZM376.481 149.43C374.231 149.43 373.106 148.188 373.106 145.704V135.525H371.459V133.608H373.106V129.045H375.995V133.608H378.506V135.525H375.995V145.515C375.995 146.145 376.094 146.586 376.292 146.838C376.49 147.09 376.868 147.216 377.426 147.216C377.786 147.216 378.137 147.189 378.479 147.135V149.268C377.759 149.376 377.093 149.43 376.481 149.43ZM380.71 133.608H383.599V135.822C384.139 134.94 384.688 134.319 385.246 133.959C385.822 133.599 386.425 133.419 387.055 133.419C387.217 133.419 387.37 133.428 387.514 133.446V136.632C386.938 136.416 386.407 136.308 385.921 136.308C385.453 136.308 385.03 136.425 384.652 136.659C384.292 136.875 383.941 137.262 383.599 137.82V149.214H380.71V133.608ZM392.112 149.43C391.518 149.43 390.978 149.259 390.492 148.917C390.024 148.575 389.655 148.125 389.385 147.567C389.115 147.009 388.98 146.424 388.98 145.812C388.98 144.588 389.241 143.598 389.763 142.842C390.285 142.068 390.951 141.456 391.761 141.006C392.571 140.556 393.696 140.043 395.136 139.467V138.36C395.136 137.334 395.028 136.614 394.812 136.2C394.614 135.768 394.2 135.552 393.57 135.552C392.472 135.552 391.923 136.29 391.923 137.766V138.549L389.061 138.441C389.097 136.713 389.493 135.444 390.249 134.634C391.005 133.806 392.175 133.392 393.759 133.392C395.253 133.392 396.333 133.806 396.999 134.634C397.683 135.444 398.025 136.677 398.025 138.333V145.461C398.025 146.631 398.115 147.882 398.295 149.214H395.649C395.451 148.188 395.325 147.423 395.271 146.919C395.055 147.621 394.677 148.215 394.137 148.701C393.615 149.187 392.94 149.43 392.112 149.43ZM393.246 146.946C393.624 146.946 393.993 146.802 394.353 146.514C394.713 146.208 394.974 145.92 395.136 145.65V141.222C394.362 141.654 393.759 142.032 393.327 142.356C392.913 142.662 392.562 143.022 392.274 143.436C392.004 143.85 391.869 144.345 391.869 144.921C391.869 145.569 391.986 146.073 392.22 146.433C392.454 146.775 392.796 146.946 393.246 146.946ZM404.747 149.43C402.497 149.43 401.372 148.188 401.372 145.704V135.525H399.725V133.608H401.372V129.045H404.261V133.608H406.772V135.525H404.261V145.515C404.261 146.145 404.36 146.586 404.558 146.838C404.756 147.09 405.134 147.216 405.692 147.216C406.052 147.216 406.403 147.189 406.745 147.135V149.268C406.025 149.376 405.359 149.43 404.747 149.43ZM409.083 128.262H411.972V131.286H409.083V128.262ZM409.083 133.608H411.972V149.214H409.083V133.608ZM414.011 133.608H416.927L418.844 146.163L420.788 133.608H423.596L420.626 149.214H417.089L414.011 133.608ZM429.773 149.43C428.567 149.43 427.631 149.205 426.965 148.755C426.299 148.287 425.831 147.603 425.561 146.703C425.291 145.803 425.156 144.633 425.156 143.193V139.629C425.156 137.469 425.489 135.894 426.155 134.904C426.839 133.896 428.045 133.392 429.773 133.392C431.033 133.392 431.978 133.653 432.608 134.175C433.256 134.697 433.679 135.435 433.877 136.389C434.093 137.325 434.201 138.594 434.201 140.196V141.465H428.045V144.597C428.045 145.551 428.18 146.244 428.45 146.676C428.738 147.09 429.188 147.297 429.8 147.297C430.412 147.297 430.826 147.09 431.042 146.676C431.258 146.244 431.366 145.596 431.366 144.732V143.787H434.174V144.381C434.174 146.019 433.823 147.27 433.121 148.134C432.419 148.998 431.303 149.43 429.773 149.43ZM431.366 139.899V138.495C431.366 137.433 431.258 136.677 431.042 136.227C430.844 135.759 430.412 135.525 429.746 135.525C429.278 135.525 428.918 135.633 428.666 135.849C428.432 136.065 428.27 136.425 428.18 136.929C428.09 137.415 428.045 138.126 428.045 139.062V139.899H431.366Z" fill="#222222"/>
<path d="M150.103 103C150.103 97.4772 154.58 93 160.103 93H229.197V153.052H160.103C154.58 153.052 150.103 148.575 150.103 143.052V103Z" fill="#2C76E6"/>
<rect x="157.371" y="96.7533" width="66.2677" height="52.5459" rx="10" fill="white"/>
<g clip-path="url(#clip1_25_27)">
<path d="M184.617 102.83C182.237 103.584 181.161 105.874 182.26 107.833C182.683 108.587 183.416 109.21 184.309 109.571C184.858 109.793 185.121 109.833 185.991 109.833C186.86 109.833 187.124 109.793 187.673 109.571C190.328 108.496 190.981 105.512 188.932 103.724C188.131 103.011 187.364 102.729 186.174 102.689C185.441 102.66 185.041 102.7 184.617 102.83Z" fill="#2C76E6"/>
<path d="M184.274 110.958C182.786 111.109 180.257 111.531 179.879 111.702C179.33 111.943 178.987 112.315 178.849 112.797C178.758 113.098 178.415 116.987 178.082 121.267L178.002 122.251H185.407H192.8L192.743 121.719C192.698 121.437 192.64 120.754 192.594 120.222L192.503 119.257L193.487 120.122C194.998 121.468 196.474 122.141 198.122 122.232C198.82 122.261 199.129 122.242 199.392 122.121C200.526 121.609 200.514 120.453 199.358 119.891C197.779 119.097 197.252 118.786 196.497 118.183C195.307 117.228 194.506 116.113 193.876 114.545C193.27 113.038 193.109 112.797 192.342 112.164C191.221 111.25 190.134 110.999 186.963 110.949C185.739 110.938 184.526 110.938 184.274 110.958Z" fill="#2C76E6"/>
<path d="M166.615 125.185L166.649 126.622L167.943 126.652L169.225 126.682V133.654C169.225 137.482 169.259 140.687 169.293 140.778C169.35 140.908 169.602 140.938 170.838 140.938H172.314V142.164C172.314 143.982 172.211 143.852 173.756 143.852H175.061V142.395V140.938L190.145 140.958L205.217 140.988L205.274 142.394L205.331 143.801H206.59H207.849L207.906 142.394L207.963 140.988L209.474 140.958L210.996 140.928L211.019 133.825L211.053 126.721L212.221 126.691C213.022 126.671 213.422 126.621 213.503 126.53C213.594 126.44 213.628 125.948 213.606 125.104L213.571 123.808L190.076 123.778L166.581 123.758L166.615 125.185Z" fill="#2C76E6"/>
</g>
<path d="M228.009 171.937L263.456 183.018V242.342L228.009 231.925V171.937Z" fill="#87A351"/>
<path fill-rule="evenodd" clip-rule="evenodd" d="M542.315 212.936L571 242.156V242.157H263.188V182.591H571L542.315 212.936Z" fill="#B7DD6E"/>
<path d="M294.677 199.501H303.128V201.688H297.728V208.978H301.913V211.138H297.728V221.371H294.677V199.501ZM305.17 200.419H308.059V203.443H305.17V200.419ZM305.17 205.765H308.059V221.371H305.17V205.765ZM311.151 205.765H314.04V207.304C315.282 206.134 316.551 205.549 317.847 205.549C318.693 205.549 319.296 205.855 319.656 206.467C320.016 207.079 320.196 207.835 320.196 208.735V221.371H317.307V209.572C317.307 208.978 317.217 208.537 317.037 208.249C316.857 207.961 316.533 207.817 316.065 207.817C315.489 207.817 314.814 208.141 314.04 208.789V221.371H311.151V205.765ZM325.824 221.587C325.23 221.587 324.69 221.416 324.204 221.074C323.736 220.732 323.367 220.282 323.097 219.724C322.827 219.166 322.692 218.581 322.692 217.969C322.692 216.745 322.953 215.755 323.475 214.999C323.997 214.225 324.663 213.613 325.473 213.163C326.283 212.713 327.408 212.2 328.848 211.624V210.517C328.848 209.491 328.74 208.771 328.524 208.357C328.326 207.925 327.912 207.709 327.282 207.709C326.184 207.709 325.635 208.447 325.635 209.923V210.706L322.773 210.598C322.809 208.87 323.205 207.601 323.961 206.791C324.717 205.963 325.887 205.549 327.471 205.549C328.965 205.549 330.045 205.963 330.711 206.791C331.395 207.601 331.737 208.834 331.737 210.49V217.618C331.737 218.788 331.827 220.039 332.007 221.371H329.361C329.163 220.345 329.037 219.58 328.983 219.076C328.767 219.778 328.389 220.372 327.849 220.858C327.327 221.344 326.652 221.587 325.824 221.587ZM326.958 219.103C327.336 219.103 327.705 218.959 328.065 218.671C328.425 218.365 328.686 218.077 328.848 217.807V213.379C328.074 213.811 327.471 214.189 327.039 214.513C326.625 214.819 326.274 215.179 325.986 215.593C325.716 216.007 325.581 216.502 325.581 217.078C325.581 217.726 325.698 218.23 325.932 218.59C326.166 218.932 326.508 219.103 326.958 219.103ZM334.513 205.765H337.402V207.304C338.644 206.134 339.913 205.549 341.209 205.549C342.055 205.549 342.658 205.855 343.018 206.467C343.378 207.079 343.558 207.835 343.558 208.735V221.371H340.669V209.572C340.669 208.978 340.579 208.537 340.399 208.249C340.219 207.961 339.895 207.817 339.427 207.817C338.851 207.817 338.176 208.141 337.402 208.789V221.371H334.513V205.765ZM350.644 221.587C349.42 221.587 348.475 221.344 347.809 220.858C347.143 220.354 346.684 219.661 346.432 218.779C346.198 217.879 346.081 216.745 346.081 215.377V211.786C346.081 210.382 346.198 209.23 346.432 208.33C346.684 207.43 347.143 206.746 347.809 206.278C348.475 205.792 349.42 205.549 350.644 205.549C351.76 205.549 352.624 205.729 353.236 206.089C353.866 206.449 354.298 206.989 354.532 207.709C354.784 208.411 354.91 209.329 354.91 210.463V211.381H352.291V210.436C352.291 209.41 352.174 208.699 351.94 208.303C351.724 207.889 351.301 207.682 350.671 207.682C350.185 207.682 349.825 207.79 349.591 208.006C349.357 208.222 349.195 208.573 349.105 209.059C349.015 209.545 348.97 210.256 348.97 211.192V216.106C348.97 217.006 349.024 217.699 349.132 218.185C349.24 218.653 349.411 218.986 349.645 219.184C349.897 219.364 350.248 219.454 350.698 219.454C351.364 219.454 351.796 219.238 351.994 218.806C352.192 218.356 352.291 217.672 352.291 216.754V215.485H354.91V216.565C354.91 218.257 354.595 219.517 353.965 220.345C353.353 221.173 352.246 221.587 350.644 221.587ZM357.667 200.419H360.556V203.443H357.667V200.419ZM357.667 205.765H360.556V221.371H357.667V205.765ZM366.456 221.587C365.862 221.587 365.322 221.416 364.836 221.074C364.368 220.732 363.999 220.282 363.729 219.724C363.459 219.166 363.324 218.581 363.324 217.969C363.324 216.745 363.585 215.755 364.107 214.999C364.629 214.225 365.295 213.613 366.105 213.163C366.915 212.713 368.04 212.2 369.48 211.624V210.517C369.48 209.491 369.372 208.771 369.156 208.357C368.958 207.925 368.544 207.709 367.914 207.709C366.816 207.709 366.267 208.447 366.267 209.923V210.706L363.405 210.598C363.441 208.87 363.837 207.601 364.593 206.791C365.349 205.963 366.519 205.549 368.103 205.549C369.597 205.549 370.677 205.963 371.343 206.791C372.027 207.601 372.369 208.834 372.369 210.49V217.618C372.369 218.788 372.459 220.039 372.639 221.371H369.993C369.795 220.345 369.669 219.58 369.615 219.076C369.399 219.778 369.021 220.372 368.481 220.858C367.959 221.344 367.284 221.587 366.456 221.587ZM367.59 219.103C367.968 219.103 368.337 218.959 368.697 218.671C369.057 218.365 369.318 218.077 369.48 217.807V213.379C368.706 213.811 368.103 214.189 367.671 214.513C367.257 214.819 366.906 215.179 366.618 215.593C366.348 216.007 366.213 216.502 366.213 217.078C366.213 217.726 366.33 218.23 366.564 218.59C366.798 218.932 367.14 219.103 367.59 219.103ZM375.414 199.501H378.303V221.371H375.414V199.501Z" fill="#222222"/>
<path d="M149 181.937C149 176.414 153.477 171.937 159 171.937H228.008V231.925H159C153.477 231.925 149 227.447 149 221.925V181.937Z" fill="#B7DD6E"/>
<rect x="156.26" y="175.686" width="66.1963" height="52.4893" rx="10" fill="white"/>
<path d="M193.841 181.553C194.058 181.553 194.234 181.396 194.234 181.203V180.035C194.234 179.842 194.058 179.685 193.841 179.685H184.146C183.929 179.685 183.753 179.842 183.753 180.035V181.341C183.753 181.535 183.929 181.692 184.146 181.692H186.939C187.834 181.692 188.52 181.982 188.936 182.487H184.146C183.929 182.487 183.753 182.644 183.753 182.837V184.005C183.753 184.198 183.929 184.355 184.146 184.355H189.346C189.142 185.408 188.266 186.066 186.897 186.066H184.146C183.929 186.066 183.753 186.223 183.753 186.416V187.964C183.753 188.061 183.799 188.155 183.879 188.221L189.285 192.668C189.358 192.727 189.453 192.761 189.552 192.761H192.256C192.614 192.761 192.786 192.369 192.523 192.153L187.581 188.088C190.086 188.02 191.876 186.53 192.111 184.355H193.841C194.058 184.355 194.234 184.198 194.234 184.005V182.837C194.234 182.644 194.058 182.487 193.841 182.487H191.919C191.805 182.15 191.648 181.838 191.452 181.553H193.841Z" fill="#104715"/>
<rect width="3.26326" height="23.2241" transform="matrix(0.751499 0.659735 -0.751499 0.659735 183.554 191.863)" fill="#87A351"/>
<rect width="3.26326" height="16.3163" transform="matrix(-0.751499 0.659734 -0.751499 -0.659735 195.815 202.627)" fill="#87A351"/>
<rect width="3.26326" height="16.3163" transform="matrix(-0.751499 -0.659735 0.751499 -0.659734 193.363 204.78)" fill="#87A351"/>
<path d="M211.335 199.151L204.398 193.061L197.462 186.972H211.335V199.151Z" fill="#87A351"/>
<path fill-rule="evenodd" clip-rule="evenodd" d="M166.38 209.034C166.201 209.418 166.101 209.847 166.101 210.299V221.558C166.101 223.215 167.444 224.558 169.101 224.558H169.654C171.311 224.558 172.654 223.215 172.654 221.558V210.299C172.654 209.397 172.255 208.587 171.625 208.037L168.435 210.838L166.38 209.034Z" fill="#104715"/>
<path fill-rule="evenodd" clip-rule="evenodd" d="M174.838 205.6V221.558C174.838 223.215 176.181 224.558 177.838 224.558H178.391C180.048 224.558 181.391 223.215 181.391 221.558V201.861C181.391 201.271 181.22 200.72 180.926 200.256L174.838 205.6Z" fill="#104715"/>
<path fill-rule="evenodd" clip-rule="evenodd" d="M183.576 197.664V221.558C183.576 223.215 184.919 224.558 186.576 224.558H187.129C188.786 224.558 190.129 223.215 190.129 221.558V203.417L183.576 197.664Z" fill="#104715"/>
<path fill-rule="evenodd" clip-rule="evenodd" d="M192.75 206.864V221.558C192.75 223.215 194.093 224.558 195.75 224.558H196.303C197.96 224.558 199.303 223.215 199.303 221.558V201.111L192.75 206.864Z" fill="#104715"/>
<path fill-rule="evenodd" clip-rule="evenodd" d="M201.05 199.148L205.392 195.541L207.604 197.378V221.558C207.604 223.215 206.26 224.558 204.604 224.558H204.05C202.394 224.558 201.05 223.215 201.05 221.558V199.148Z" fill="#104715"/>
<path d="M228.009 251.842L263.456 258.622V319.398L228.009 311.83V251.842Z" fill="#8A487D"/>
<path d="M263.188 259.106H527.268V318.866H263.188V259.106Z" fill="#BD63AB"/>
<path d="M525.764 259.269H539.704C556.166 259.269 569.511 272.614 569.511 289.076V289.076C569.511 305.537 556.166 318.882 539.704 318.882H525.764V259.269Z" fill="#BD63AB"/>
<path d="M298.184 280.705H294.485V278.437H304.826V280.705H301.235V300.307H298.184V280.705ZM309.13 300.523C308.536 300.523 307.996 300.352 307.51 300.01C307.042 299.668 306.673 299.218 306.403 298.66C306.133 298.102 305.998 297.517 305.998 296.905C305.998 295.681 306.259 294.691 306.781 293.935C307.303 293.161 307.969 292.549 308.779 292.099C309.589 291.649 310.714 291.136 312.154 290.56V289.453C312.154 288.427 312.046 287.707 311.83 287.293C311.632 286.861 311.218 286.645 310.588 286.645C309.49 286.645 308.941 287.383 308.941 288.859V289.642L306.079 289.534C306.115 287.806 306.511 286.537 307.267 285.727C308.023 284.899 309.193 284.485 310.777 284.485C312.271 284.485 313.351 284.899 314.017 285.727C314.701 286.537 315.043 287.77 315.043 289.426V296.554C315.043 297.724 315.133 298.975 315.313 300.307H312.667C312.469 299.281 312.343 298.516 312.289 298.012C312.073 298.714 311.695 299.308 311.155 299.794C310.633 300.28 309.958 300.523 309.13 300.523ZM310.264 298.039C310.642 298.039 311.011 297.895 311.371 297.607C311.731 297.301 311.992 297.013 312.154 296.743V292.315C311.38 292.747 310.777 293.125 310.345 293.449C309.931 293.755 309.58 294.115 309.292 294.529C309.022 294.943 308.887 295.438 308.887 296.014C308.887 296.662 309.004 297.166 309.238 297.526C309.472 297.868 309.814 298.039 310.264 298.039ZM321.436 300.523C320.176 300.523 319.15 300.127 318.358 299.335C317.584 298.543 317.143 297.481 317.035 296.149L319.438 295.42C319.582 296.428 319.825 297.175 320.167 297.661C320.527 298.147 321.031 298.39 321.679 298.39C322.183 298.39 322.57 298.246 322.84 297.958C323.128 297.652 323.272 297.247 323.272 296.743C323.272 296.293 323.173 295.888 322.975 295.528C322.777 295.168 322.453 294.799 322.003 294.421L319.33 292.126C318.718 291.604 318.241 291.055 317.899 290.479C317.575 289.885 317.413 289.165 317.413 288.319C317.413 287.113 317.773 286.177 318.493 285.511C319.213 284.827 320.194 284.485 321.436 284.485C322.624 284.485 323.551 284.872 324.217 285.646C324.901 286.402 325.297 287.383 325.405 288.589L323.461 289.318C323.335 288.436 323.128 287.77 322.84 287.32C322.552 286.852 322.12 286.618 321.544 286.618C321.076 286.618 320.698 286.771 320.41 287.077C320.14 287.383 320.005 287.761 320.005 288.211C320.005 288.787 320.266 289.309 320.788 289.777L323.542 292.315C324.244 292.963 324.784 293.602 325.162 294.232C325.558 294.862 325.756 295.627 325.756 296.527C325.756 297.823 325.369 298.813 324.595 299.497C323.821 300.181 322.768 300.523 321.436 300.523ZM327.971 278.41H330.86V291.451L335.072 284.701H338.096L334.424 290.803L337.988 300.307H335.099L332.183 292.315L330.86 294.313V300.28H327.971V278.41ZM349.361 278.437H352.304L356.975 300.307H354.086L353.087 294.799H348.632L347.579 300.307H344.717L349.361 278.437ZM352.682 292.612L350.846 282.757L349.037 292.612H352.682ZM363.217 300.523C361.993 300.523 361.048 300.28 360.382 299.794C359.716 299.29 359.257 298.597 359.005 297.715C358.771 296.815 358.654 295.681 358.654 294.313V290.722C358.654 289.318 358.771 288.166 359.005 287.266C359.257 286.366 359.716 285.682 360.382 285.214C361.048 284.728 361.993 284.485 363.217 284.485C364.333 284.485 365.197 284.665 365.809 285.025C366.439 285.385 366.871 285.925 367.105 286.645C367.357 287.347 367.483 288.265 367.483 289.399V290.317H364.864V289.372C364.864 288.346 364.747 287.635 364.513 287.239C364.297 286.825 363.874 286.618 363.244 286.618C362.758 286.618 362.398 286.726 362.164 286.942C361.93 287.158 361.768 287.509 361.678 287.995C361.588 288.481 361.543 289.192 361.543 290.128V295.042C361.543 295.942 361.597 296.635 361.705 297.121C361.813 297.589 361.984 297.922 362.218 298.12C362.47 298.3 362.821 298.39 363.271 298.39C363.937 298.39 364.369 298.174 364.567 297.742C364.765 297.292 364.864 296.608 364.864 295.69V294.421H367.483V295.501C367.483 297.193 367.168 298.453 366.538 299.281C365.926 300.109 364.819 300.523 363.217 300.523ZM374.209 300.523C371.959 300.523 370.834 299.281 370.834 296.797V286.618H369.187V284.701H370.834V280.138H373.723V284.701H376.234V286.618H373.723V296.608C373.723 297.238 373.822 297.679 374.02 297.931C374.218 298.183 374.596 298.309 375.154 298.309C375.514 298.309 375.865 298.282 376.207 298.228V300.361C375.487 300.469 374.821 300.523 374.209 300.523ZM378.546 279.355H381.435V282.379H378.546V279.355ZM378.546 284.701H381.435V300.307H378.546V284.701ZM383.474 284.701H386.39L388.307 297.256L390.251 284.701H393.059L390.089 300.307H386.552L383.474 284.701ZM395.105 279.355H397.994V282.379H395.105V279.355ZM395.105 284.701H397.994V300.307H395.105V284.701ZM405.244 300.523C402.994 300.523 401.869 299.281 401.869 296.797V286.618H400.222V284.701H401.869V280.138H404.758V284.701H407.269V286.618H404.758V296.608C404.758 297.238 404.857 297.679 405.055 297.931C405.253 298.183 405.631 298.309 406.189 298.309C406.549 298.309 406.9 298.282 407.242 298.228V300.361C406.522 300.469 405.856 300.523 405.244 300.523ZM409.148 302.008C410.228 302.008 410.966 301.927 411.362 301.765C411.776 301.603 411.983 301.297 411.983 300.847C411.983 300.631 411.785 299.677 411.389 297.985L408.257 284.701H411.173L413.279 296.365L415.304 284.701H418.22L414.494 301.171C414.242 302.269 413.711 303.052 412.901 303.52C412.091 303.988 410.957 304.222 409.499 304.222H409.148V302.008Z" fill="#222222"/>
<path d="M149 261.842C149 256.319 153.477 251.842 159 251.842H228.008V311.83H159C153.477 311.83 149 307.353 149 301.83V261.842Z" fill="#BD63AB"/>
<rect x="156.26" y="255.591" width="66.1963" height="52.4893" rx="10" fill="white"/>
<path d="M176.429 264.238C176.324 264.146 176.2 264.074 176.063 264.024C175.927 263.974 175.78 263.949 175.632 263.949C175.484 263.949 175.337 263.974 175.201 264.024C175.064 264.074 174.94 264.146 174.835 264.238L168.866 269.418L166.738 267.608C166.634 267.517 166.51 267.444 166.373 267.395C166.236 267.345 166.09 267.319 165.942 267.319C165.794 267.319 165.647 267.345 165.51 267.395C165.374 267.444 165.249 267.517 165.145 267.608L163.673 268.895C163.568 268.986 163.485 269.094 163.428 269.214C163.372 269.333 163.342 269.461 163.342 269.59C163.342 269.719 163.372 269.847 163.428 269.967C163.485 270.086 163.568 270.194 163.673 270.286L168.134 274.164C168.357 274.349 168.652 274.452 168.959 274.452C169.267 274.452 169.562 274.349 169.785 274.164L171.246 272.886L178.014 266.979C178.225 266.795 178.344 266.545 178.345 266.285C178.347 266.025 178.231 265.774 178.022 265.588L176.429 264.238ZM176.429 277.264C176.324 277.172 176.2 277.1 176.063 277.05C175.927 277.001 175.78 276.975 175.632 276.975C175.484 276.975 175.337 277.001 175.201 277.05C175.064 277.1 174.94 277.172 174.835 277.264L168.866 282.478L166.738 280.67C166.634 280.578 166.51 280.505 166.373 280.456C166.236 280.406 166.09 280.381 165.942 280.381C165.794 280.381 165.647 280.406 165.51 280.456C165.374 280.505 165.249 280.578 165.145 280.67L163.673 281.953C163.568 282.045 163.485 282.153 163.428 282.272C163.372 282.392 163.342 282.52 163.342 282.649C163.342 282.778 163.372 282.906 163.428 283.026C163.485 283.145 163.568 283.253 163.673 283.345L168.123 287.231C168.345 287.416 168.641 287.519 168.948 287.519C169.255 287.519 169.55 287.416 169.773 287.231L171.244 285.948L178.012 280.038C178.222 279.855 178.341 279.607 178.342 279.348C178.344 279.089 178.228 278.84 178.02 278.655L176.429 277.264ZM169.341 291.446C166.858 291.446 164.787 293.205 164.787 295.373C164.787 297.542 166.86 299.301 169.341 299.301C170.535 299.301 171.679 298.887 172.523 298.151C173.367 297.414 173.841 296.415 173.841 295.373C173.841 294.332 173.367 293.333 172.523 292.596C171.679 291.859 170.535 291.446 169.341 291.446ZM209.835 292.755H182.839C182.441 292.755 182.06 292.893 181.779 293.138C181.497 293.384 181.339 293.717 181.339 294.064V296.683C181.339 297.03 181.497 297.363 181.779 297.608C182.06 297.854 182.441 297.992 182.839 297.992H209.835C210.233 297.992 210.614 297.854 210.895 297.608C211.177 297.363 211.335 297.03 211.335 296.683V294.064C211.335 293.717 211.177 293.384 210.895 293.138C210.614 292.893 210.233 292.755 209.835 292.755ZM209.835 266.57H182.839C182.441 266.57 182.06 266.708 181.779 266.953C181.497 267.199 181.339 267.532 181.339 267.879V270.498C181.339 270.845 181.497 271.178 181.779 271.423C182.06 271.669 182.441 271.807 182.839 271.807H209.835C210.233 271.807 210.614 271.669 210.895 271.423C211.177 271.178 211.335 270.845 211.335 270.498V267.879C211.335 267.532 211.177 267.199 210.895 266.953C210.614 266.708 210.233 266.57 209.835 266.57V266.57ZM209.835 279.662H182.839C182.441 279.662 182.06 279.8 181.779 280.046C181.497 280.291 181.339 280.624 181.339 280.972V283.59C181.339 283.937 181.497 284.27 181.779 284.516C182.06 284.761 182.441 284.899 182.839 284.899H209.835C210.233 284.899 210.614 284.761 210.895 284.516C211.177 284.27 211.335 283.937 211.335 283.59V280.972C211.335 280.624 211.177 280.291 210.895 280.046C210.614 279.8 210.233 279.662 209.835 279.662Z" fill="#BD63AB"/>
<path d="M229.112 327.389L264.559 331.99V393.492L229.112 387.377V327.389Z" fill="#2F9999"/>
<path fill-rule="evenodd" clip-rule="evenodd" d="M569.897 332.716V333.646L554.451 346.661L569.897 363.025V365.023L554.451 376.637L569.897 391.239V392.282H264.292V332.716H569.897Z" fill="#3DC5C5"/>
<path d="M294.149 352.532H297.011L300.467 368.651L303.761 352.532H306.542L301.709 374.402H299.036L294.149 352.532ZM308.807 353.45H311.696V356.474H308.807V353.45ZM308.807 358.796H311.696V374.402H308.807V358.796ZM318.406 374.618C317.146 374.618 316.12 374.222 315.328 373.43C314.554 372.638 314.113 371.576 314.005 370.244L316.408 369.515C316.552 370.523 316.795 371.27 317.137 371.756C317.497 372.242 318.001 372.485 318.649 372.485C319.153 372.485 319.54 372.341 319.81 372.053C320.098 371.747 320.242 371.342 320.242 370.838C320.242 370.388 320.143 369.983 319.945 369.623C319.747 369.263 319.423 368.894 318.973 368.516L316.3 366.221C315.688 365.699 315.211 365.15 314.869 364.574C314.545 363.98 314.383 363.26 314.383 362.414C314.383 361.208 314.743 360.272 315.463 359.606C316.183 358.922 317.164 358.58 318.406 358.58C319.594 358.58 320.521 358.967 321.187 359.741C321.871 360.497 322.267 361.478 322.375 362.684L320.431 363.413C320.305 362.531 320.098 361.865 319.81 361.415C319.522 360.947 319.09 360.713 318.514 360.713C318.046 360.713 317.668 360.866 317.38 361.172C317.11 361.478 316.975 361.856 316.975 362.306C316.975 362.882 317.236 363.404 317.758 363.872L320.512 366.41C321.214 367.058 321.754 367.697 322.132 368.327C322.528 368.957 322.726 369.722 322.726 370.622C322.726 371.918 322.339 372.908 321.565 373.592C320.791 374.276 319.738 374.618 318.406 374.618ZM325.075 353.45H327.964V356.474H325.075V353.45ZM325.075 358.796H327.964V374.402H325.075V358.796ZM335.214 374.618C332.964 374.618 331.839 373.376 331.839 370.892V360.713H330.192V358.796H331.839V354.233H334.728V358.796H337.239V360.713H334.728V370.703C334.728 371.333 334.827 371.774 335.025 372.026C335.223 372.278 335.601 372.404 336.159 372.404C336.519 372.404 336.87 372.377 337.212 372.323V374.456C336.492 374.564 335.826 374.618 335.214 374.618ZM343.655 374.618C341.999 374.618 340.82 374.132 340.118 373.16C339.434 372.17 339.092 370.739 339.092 368.867V364.331C339.092 362.459 339.434 361.037 340.118 360.065C340.82 359.075 341.999 358.58 343.655 358.58C345.293 358.58 346.454 359.075 347.138 360.065C347.84 361.037 348.191 362.459 348.191 364.331V368.867C348.191 370.739 347.84 372.17 347.138 373.16C346.454 374.132 345.293 374.618 343.655 374.618ZM343.655 372.485C344.177 372.485 344.555 372.332 344.789 372.026C345.023 371.72 345.167 371.342 345.221 370.892C345.275 370.442 345.302 369.83 345.302 369.056V364.169C345.302 363.395 345.275 362.783 345.221 362.333C345.167 361.865 345.023 361.478 344.789 361.172C344.555 360.866 344.177 360.713 343.655 360.713C343.133 360.713 342.746 360.866 342.494 361.172C342.26 361.478 342.116 361.865 342.062 362.333C342.008 362.783 341.981 363.395 341.981 364.169V369.056C341.981 369.83 342.008 370.442 342.062 370.892C342.116 371.342 342.26 371.72 342.494 372.026C342.746 372.332 343.133 372.485 343.655 372.485ZM350.913 358.796H353.802V361.01C354.342 360.128 354.891 359.507 355.449 359.147C356.025 358.787 356.628 358.607 357.258 358.607C357.42 358.607 357.573 358.616 357.717 358.634V361.82C357.141 361.604 356.61 361.496 356.124 361.496C355.656 361.496 355.233 361.613 354.855 361.847C354.495 362.063 354.144 362.45 353.802 363.008V374.402H350.913V358.796ZM365.92 352.532H368.971V372.215H374.56V374.402H365.92V352.532ZM380.701 374.618C379.045 374.618 377.866 374.132 377.164 373.16C376.48 372.17 376.138 370.739 376.138 368.867V364.331C376.138 362.459 376.48 361.037 377.164 360.065C377.866 359.075 379.045 358.58 380.701 358.58C382.339 358.58 383.5 359.075 384.184 360.065C384.886 361.037 385.237 362.459 385.237 364.331V368.867C385.237 370.739 384.886 372.17 384.184 373.16C383.5 374.132 382.339 374.618 380.701 374.618ZM380.701 372.485C381.223 372.485 381.601 372.332 381.835 372.026C382.069 371.72 382.213 371.342 382.267 370.892C382.321 370.442 382.348 369.83 382.348 369.056V364.169C382.348 363.395 382.321 362.783 382.267 362.333C382.213 361.865 382.069 361.478 381.835 361.172C381.601 360.866 381.223 360.713 380.701 360.713C380.179 360.713 379.792 360.866 379.54 361.172C379.306 361.478 379.162 361.865 379.108 362.333C379.054 362.783 379.027 363.395 379.027 364.169V369.056C379.027 369.83 379.054 370.442 379.108 370.892C379.162 371.342 379.306 371.72 379.54 372.026C379.792 372.332 380.179 372.485 380.701 372.485ZM391.928 379.235C390.416 379.235 389.21 378.992 388.31 378.506C387.41 378.038 386.96 377.3 386.96 376.292C386.96 375.608 387.167 375.014 387.581 374.51C388.013 374.006 388.553 373.601 389.201 373.295C388.715 373.151 388.337 372.926 388.067 372.62C387.815 372.314 387.689 371.981 387.689 371.621C387.689 371.081 387.824 370.613 388.094 370.217C388.364 369.821 388.805 369.344 389.417 368.786C388.805 368.318 388.346 367.733 388.04 367.031C387.752 366.311 387.608 365.348 387.608 364.142C387.608 362.324 387.977 360.947 388.715 360.011C389.471 359.057 390.569 358.58 392.009 358.58C392.837 358.58 393.512 358.724 394.034 359.012C394.556 359.3 394.952 359.732 395.222 360.308C395.348 360.11 395.609 359.849 396.005 359.525C396.419 359.183 396.86 358.904 397.328 358.688L397.76 358.499L398.489 360.362C398.129 360.434 397.625 360.587 396.977 360.821C396.347 361.055 395.969 361.235 395.843 361.361C395.969 361.685 396.077 362.135 396.167 362.711C396.275 363.287 396.329 363.791 396.329 364.223C396.329 365.933 395.996 367.265 395.33 368.219C394.664 369.155 393.557 369.623 392.009 369.623C391.523 369.623 391.028 369.56 390.524 369.434C390.182 369.938 390.011 370.334 390.011 370.622C390.011 370.82 390.11 370.982 390.308 371.108C390.524 371.216 390.857 371.288 391.307 371.324L393.737 371.54C394.961 371.648 395.87 372.017 396.464 372.647C397.058 373.277 397.355 374.177 397.355 375.347C397.355 377.939 395.546 379.235 391.928 379.235ZM392.009 367.598C392.783 367.598 393.287 367.328 393.521 366.788C393.755 366.248 393.872 365.366 393.872 364.142C393.872 362.9 393.755 362 393.521 361.442C393.287 360.866 392.792 360.578 392.036 360.578C391.28 360.578 390.767 360.866 390.497 361.442C390.245 362 390.119 362.9 390.119 364.142C390.119 365.258 390.245 366.113 390.497 366.707C390.767 367.301 391.271 367.598 392.009 367.598ZM392.144 376.967C393.17 376.967 393.926 376.841 394.412 376.589C394.898 376.355 395.141 375.968 395.141 375.428C395.141 374.924 394.988 374.555 394.682 374.321C394.376 374.069 393.818 373.907 393.008 373.835L390.551 373.619C390.173 373.997 389.885 374.33 389.687 374.618C389.489 374.906 389.39 375.221 389.39 375.563C389.39 376.049 389.588 376.4 389.984 376.616C390.398 376.85 391.118 376.967 392.144 376.967Z" fill="#222222"/>
<path d="M150.103 337.389C150.103 331.866 154.58 327.389 160.103 327.389H229.112V387.377H160.103C154.58 387.377 150.103 382.9 150.103 377.377V337.389Z" fill="#3DC5C5"/>
<rect x="157.364" y="331.138" width="66.1963" height="52.4893" rx="10" fill="white"/>
<ellipse cx="174.956" cy="341.866" rx="2.32267" ry="2.03905" fill="#2F9999"/>
<ellipse cx="200.505" cy="341.866" rx="2.32267" ry="2.03905" fill="#2F9999"/>
<path d="M175.653 355.4C177.6 355.4 179.18 354.013 179.18 352.304C179.18 350.594 177.6 349.207 175.653 349.207C173.705 349.207 172.125 350.594 172.125 352.304C172.125 354.013 173.705 355.4 175.653 355.4ZM178.788 356.089H177.439C176.895 356.308 176.29 356.433 175.653 356.433C175.016 356.433 174.413 356.308 173.867 356.089H172.517C170.785 356.089 169.382 357.321 169.382 358.841V359.185C169.382 359.755 169.908 360.218 170.557 360.218H180.748C181.397 360.218 181.924 359.755 181.924 359.185V358.841C181.924 357.321 180.52 356.089 178.788 356.089Z" fill="#2F9999"/>
<path fill-rule="evenodd" clip-rule="evenodd" d="M171.704 339.145C166.961 339.927 163.342 344.047 163.342 349.012V361.636C163.342 367.159 167.82 371.636 173.342 371.636H203.512C209.035 371.636 213.512 367.159 213.512 361.636V349.012C213.512 343.727 209.413 339.4 204.222 339.036V344.573H197.254V339.012H178.672V344.573H171.704V339.145ZM183.782 347.576H167.523V361.849H183.782V347.576ZM187.034 348.595C187.034 348.032 187.49 347.576 188.053 347.576H209.241C209.804 347.576 210.261 348.032 210.261 348.595C210.261 349.158 209.804 349.615 209.241 349.615H188.053C187.49 349.615 187.034 349.158 187.034 348.595ZM188.053 351.654C187.49 351.654 187.034 352.11 187.034 352.673C187.034 353.236 187.49 353.693 188.053 353.693H209.241C209.804 353.693 210.261 353.236 210.261 352.673C210.261 352.11 209.804 351.654 209.241 351.654H188.053ZM187.034 356.751C187.034 356.188 187.49 355.732 188.053 355.732H209.241C209.804 355.732 210.261 356.188 210.261 356.751C210.261 357.314 209.804 357.771 209.241 357.771H188.053C187.49 357.771 187.034 357.314 187.034 356.751ZM188.053 359.81C187.49 359.81 187.034 360.266 187.034 360.829C187.034 361.392 187.49 361.849 188.053 361.849H209.241C209.804 361.849 210.261 361.392 210.261 360.829C210.261 360.266 209.804 359.81 209.241 359.81H188.053Z" fill="#2F9999"/>
<ellipse cx="205.383" cy="371.84" rx="10.9165" ry="9.58354" fill="#E5E5E5"/>
<path d="M210.667 377.503H207.771C207.543 377.503 207.357 377.334 207.357 377.128V375.88C207.357 375.674 207.543 375.505 207.771 375.505H210.667C211.277 375.505 211.77 375.059 211.77 374.507V368.515C211.77 367.963 211.277 367.516 210.667 367.516H207.771C207.543 367.516 207.357 367.348 207.357 367.142V365.894C207.357 365.688 207.543 365.519 207.771 365.519H210.667C212.494 365.519 213.977 366.861 213.977 368.515V374.507C213.977 376.161 212.494 377.503 210.667 377.503ZM209.047 371.23L203.254 365.987C202.737 365.519 201.841 365.847 201.841 366.518V369.514H197.152C196.693 369.514 196.325 369.848 196.325 370.263V373.258C196.325 373.674 196.693 374.007 197.152 374.007H201.841V377.003C201.841 377.674 202.737 378.002 203.254 377.534L209.047 372.291C209.367 371.998 209.367 371.523 209.047 371.23Z" fill="#2F9999"/>
<path d="M150.103 413.31C150.103 407.788 154.58 403.31 160.103 403.31H229.197V463.363H160.103C154.58 463.363 150.103 458.886 150.103 453.363V413.31Z" fill="#F1537F"/>
<path d="M229.197 402.936L264.682 408.263V458.627L229.197 463.361V402.936Z" fill="#A63957"/>
<path fill-rule="evenodd" clip-rule="evenodd" d="M541.763 408.263H263.188V458.627H541.763L571 432.97L541.763 408.263Z" fill="#F1537F"/>
<rect x="157.371" y="407.064" width="66.2677" height="52.5459" rx="10" fill="white"/>
<path d="M298.685 425.173H301.628L306.299 447.043H303.41L302.411 441.535H297.956L296.903 447.043H294.041L298.685 425.173ZM302.006 439.348L300.17 429.493L298.361 439.348H302.006ZM311.893 447.259C310.633 447.259 309.607 446.863 308.815 446.071C308.041 445.279 307.6 444.217 307.492 442.885L309.895 442.156C310.039 443.164 310.282 443.911 310.624 444.397C310.984 444.883 311.488 445.126 312.136 445.126C312.64 445.126 313.027 444.982 313.297 444.694C313.585 444.388 313.729 443.983 313.729 443.479C313.729 443.029 313.63 442.624 313.432 442.264C313.234 441.904 312.91 441.535 312.46 441.157L309.787 438.862C309.175 438.34 308.698 437.791 308.356 437.215C308.032 436.621 307.87 435.901 307.87 435.055C307.87 433.849 308.23 432.913 308.95 432.247C309.67 431.563 310.651 431.221 311.893 431.221C313.081 431.221 314.008 431.608 314.674 432.382C315.358 433.138 315.754 434.119 315.862 435.325L313.918 436.054C313.792 435.172 313.585 434.506 313.297 434.056C313.009 433.588 312.577 433.354 312.001 433.354C311.533 433.354 311.155 433.507 310.867 433.813C310.597 434.119 310.462 434.497 310.462 434.947C310.462 435.523 310.723 436.045 311.245 436.513L313.999 439.051C314.701 439.699 315.241 440.338 315.619 440.968C316.015 441.598 316.213 442.363 316.213 443.263C316.213 444.559 315.826 445.549 315.052 446.233C314.278 446.917 313.225 447.259 311.893 447.259ZM318.428 425.146H321.317V438.187L325.529 431.437H328.553L324.881 437.539L328.445 447.043H325.556L322.64 439.051L321.317 441.049V447.016H318.428V425.146ZM346.406 451.471C345.308 450.931 343.994 449.527 342.464 447.259C342.356 447.277 342.185 447.286 341.951 447.286C339.809 447.286 338.27 446.683 337.334 445.477C336.416 444.253 335.957 442.489 335.957 440.185V431.896C335.957 429.628 336.425 427.909 337.361 426.739C338.297 425.569 339.827 424.984 341.951 424.984C344.075 424.984 345.605 425.578 346.541 426.766C347.477 427.936 347.945 429.646 347.945 431.896V440.212C347.945 443.686 346.874 445.873 344.732 446.773C345.632 447.943 346.352 448.708 346.892 449.068L346.406 451.471ZM341.951 444.883C343.103 444.883 343.877 444.55 344.273 443.884C344.669 443.218 344.867 442.21 344.867 440.86V431.275C344.867 429.943 344.669 428.962 344.273 428.332C343.877 427.684 343.103 427.36 341.951 427.36C340.799 427.36 340.025 427.684 339.629 428.332C339.233 428.962 339.035 429.943 339.035 431.275V440.86C339.035 442.21 339.233 443.218 339.629 443.884C340.025 444.55 340.799 444.883 341.951 444.883ZM352.967 447.259C352.121 447.259 351.518 446.953 351.158 446.341C350.798 445.729 350.618 444.973 350.618 444.073V431.437H353.507V443.209C353.507 443.803 353.597 444.253 353.777 444.559C353.957 444.847 354.281 444.991 354.749 444.991C355.325 444.991 356 444.667 356.774 444.019V431.437H359.663V447.043H356.774V445.504C355.532 446.674 354.263 447.259 352.967 447.259ZM366.938 447.259C365.732 447.259 364.796 447.034 364.13 446.584C363.464 446.116 362.996 445.432 362.726 444.532C362.456 443.632 362.321 442.462 362.321 441.022V437.458C362.321 435.298 362.654 433.723 363.32 432.733C364.004 431.725 365.21 431.221 366.938 431.221C368.198 431.221 369.143 431.482 369.773 432.004C370.421 432.526 370.844 433.264 371.042 434.218C371.258 435.154 371.366 436.423 371.366 438.025V439.294H365.21V442.426C365.21 443.38 365.345 444.073 365.615 444.505C365.903 444.919 366.353 445.126 366.965 445.126C367.577 445.126 367.991 444.919 368.207 444.505C368.423 444.073 368.531 443.425 368.531 442.561V441.616H371.339V442.21C371.339 443.848 370.988 445.099 370.286 445.963C369.584 446.827 368.468 447.259 366.938 447.259ZM368.531 437.728V436.324C368.531 435.262 368.423 434.506 368.207 434.056C368.009 433.588 367.577 433.354 366.911 433.354C366.443 433.354 366.083 433.462 365.831 433.678C365.597 433.894 365.435 434.254 365.345 434.758C365.255 435.244 365.21 435.955 365.21 436.891V437.728H368.531ZM374.063 431.437H376.952V433.651C377.492 432.769 378.041 432.148 378.599 431.788C379.175 431.428 379.778 431.248 380.408 431.248C380.57 431.248 380.723 431.257 380.867 431.275V434.461C380.291 434.245 379.76 434.137 379.274 434.137C378.806 434.137 378.383 434.254 378.005 434.488C377.645 434.704 377.294 435.091 376.952 435.649V447.043H374.063V431.437ZM382.414 448.744C383.494 448.744 384.232 448.663 384.628 448.501C385.042 448.339 385.249 448.033 385.249 447.583C385.249 447.367 385.051 446.413 384.655 444.721L381.523 431.437H384.439L386.545 443.101L388.57 431.437H391.486L387.76 447.907C387.508 449.005 386.977 449.788 386.167 450.256C385.357 450.724 384.223 450.958 382.765 450.958H382.414V448.744Z" fill="#222222"/>
<path fill-rule="evenodd" clip-rule="evenodd" d="M191.013 446.228C201.063 443.864 207.026 434.796 204.334 425.974C201.641 417.152 191.312 411.916 181.262 414.28C171.213 416.644 165.249 425.712 167.942 434.534C170.635 443.356 180.964 448.592 191.013 446.228ZM189.995 442.89C197.944 441.02 202.662 433.847 200.532 426.868C198.402 419.89 190.231 415.748 182.281 417.618C174.332 419.488 169.614 426.661 171.744 433.64C173.874 440.619 182.045 444.76 189.995 442.89Z" fill="#A63957"/>
<path d="M198.608 446.374C197.333 445.255 197.333 443.44 198.608 442.32V442.32C199.883 441.201 201.95 441.201 203.225 442.32L212.888 450.803C213.718 451.532 213.718 452.714 212.888 453.442L211.277 454.857C210.447 455.586 209.101 455.586 208.271 454.857L198.608 446.374Z" fill="#A63957"/>
<path d="M186.156 421.655C183.08 421.655 181.087 422.753 179.523 424.712C179.239 425.068 179.326 425.555 179.722 425.817L181.385 426.915C181.785 427.18 182.353 427.118 182.666 426.776C183.632 425.722 184.348 425.115 185.856 425.115C187.042 425.115 188.508 425.78 188.508 426.782C188.508 427.54 187.791 427.929 186.62 428.501C185.255 429.168 183.448 429.998 183.448 432.075L183.448 432.404C183.448 432.849 183.862 433.21 184.373 433.21L187.166 433.21C187.677 433.21 188.091 432.849 188.091 432.404L188.091 432.21C188.091 430.77 192.919 430.71 192.919 426.814C192.919 423.88 189.427 421.655 186.156 421.655ZM185.77 434.2C184.298 434.2 183.1 435.243 183.1 436.527C183.1 437.81 184.298 438.853 185.77 438.853C187.242 438.853 188.44 437.81 188.44 436.527C188.44 435.243 187.242 434.2 185.77 434.2Z" fill="#A63957"/>
<path d="M229.112 478.967L264.559 473.64V534.174L229.112 538.955V478.967Z" fill="#2055A6"/>
<path fill-rule="evenodd" clip-rule="evenodd" d="M569.897 474.708V474.31H264.05V533.923H569.897V533.128L541.763 504.469L569.897 474.708Z" fill="#2C76E6"/>
<path d="M294.678 490.971H299.43C301.788 490.971 303.453 491.511 304.425 492.591C305.415 493.671 305.91 495.354 305.91 497.64V505.686C305.91 508.098 305.424 509.898 304.452 511.086C303.498 512.256 301.905 512.841 299.673 512.841H294.678V490.971ZM299.457 510.654C300.519 510.654 301.284 510.447 301.752 510.033C302.238 509.619 302.535 509.061 302.643 508.359C302.769 507.639 302.832 506.559 302.832 505.119V498.018C302.832 496.776 302.751 495.831 302.589 495.183C302.445 494.517 302.13 494.031 301.644 493.725C301.158 493.401 300.402 493.239 299.376 493.239H297.729V510.654H299.457ZM311.481 513.057C310.887 513.057 310.347 512.886 309.861 512.544C309.393 512.202 309.024 511.752 308.754 511.194C308.484 510.636 308.349 510.051 308.349 509.439C308.349 508.215 308.61 507.225 309.132 506.469C309.654 505.695 310.32 505.083 311.13 504.633C311.94 504.183 313.065 503.67 314.505 503.094V501.987C314.505 500.961 314.397 500.241 314.181 499.827C313.983 499.395 313.569 499.179 312.939 499.179C311.841 499.179 311.292 499.917 311.292 501.393V502.176L308.43 502.068C308.466 500.34 308.862 499.071 309.618 498.261C310.374 497.433 311.544 497.019 313.128 497.019C314.622 497.019 315.702 497.433 316.368 498.261C317.052 499.071 317.394 500.304 317.394 501.96V509.088C317.394 510.258 317.484 511.509 317.664 512.841H315.018C314.82 511.815 314.694 511.05 314.64 510.546C314.424 511.248 314.046 511.842 313.506 512.328C312.984 512.814 312.309 513.057 311.481 513.057ZM312.615 510.573C312.993 510.573 313.362 510.429 313.722 510.141C314.082 509.835 314.343 509.547 314.505 509.277V504.849C313.731 505.281 313.128 505.659 312.696 505.983C312.282 506.289 311.931 506.649 311.643 507.063C311.373 507.477 311.238 507.972 311.238 508.548C311.238 509.196 311.355 509.7 311.589 510.06C311.823 510.402 312.165 510.573 312.615 510.573ZM324.116 513.057C321.866 513.057 320.741 511.815 320.741 509.331V499.152H319.094V497.235H320.741V492.672H323.63V497.235H326.141V499.152H323.63V509.142C323.63 509.772 323.729 510.213 323.927 510.465C324.125 510.717 324.503 510.843 325.061 510.843C325.421 510.843 325.772 510.816 326.114 510.762V512.895C325.394 513.003 324.728 513.057 324.116 513.057ZM331.072 513.057C330.478 513.057 329.938 512.886 329.452 512.544C328.984 512.202 328.615 511.752 328.345 511.194C328.075 510.636 327.94 510.051 327.94 509.439C327.94 508.215 328.201 507.225 328.723 506.469C329.245 505.695 329.911 505.083 330.721 504.633C331.531 504.183 332.656 503.67 334.096 503.094V501.987C334.096 500.961 333.988 500.241 333.772 499.827C333.574 499.395 333.16 499.179 332.53 499.179C331.432 499.179 330.883 499.917 330.883 501.393V502.176L328.021 502.068C328.057 500.34 328.453 499.071 329.209 498.261C329.965 497.433 331.135 497.019 332.719 497.019C334.213 497.019 335.293 497.433 335.959 498.261C336.643 499.071 336.985 500.304 336.985 501.96V509.088C336.985 510.258 337.075 511.509 337.255 512.841H334.609C334.411 511.815 334.285 511.05 334.231 510.546C334.015 511.248 333.637 511.842 333.097 512.328C332.575 512.814 331.9 513.057 331.072 513.057ZM332.206 510.573C332.584 510.573 332.953 510.429 333.313 510.141C333.673 509.835 333.934 509.547 334.096 509.277V504.849C333.322 505.281 332.719 505.659 332.287 505.983C331.873 506.289 331.522 506.649 331.234 507.063C330.964 507.477 330.829 507.972 330.829 508.548C330.829 509.196 330.946 509.7 331.18 510.06C331.414 510.402 331.756 510.573 332.206 510.573ZM351.33 513.084C349.494 513.084 348.09 512.517 347.118 511.383C346.164 510.249 345.633 508.692 345.525 506.712L348.225 505.983C348.315 507.387 348.585 508.521 349.035 509.385C349.503 510.249 350.268 510.681 351.33 510.681C352.122 510.681 352.716 510.465 353.112 510.033C353.526 509.583 353.733 508.944 353.733 508.116C353.733 507.216 353.544 506.469 353.166 505.875C352.788 505.281 352.185 504.624 351.357 503.904L347.685 500.664C346.947 500.016 346.407 499.323 346.065 498.585C345.741 497.829 345.579 496.911 345.579 495.831C345.579 494.229 346.038 492.987 346.956 492.105C347.874 491.223 349.125 490.782 350.709 490.782C352.437 490.782 353.742 491.241 354.624 492.159C355.506 493.077 356.037 494.499 356.217 496.425L353.625 497.127C353.535 495.849 353.283 494.868 352.869 494.184C352.473 493.482 351.753 493.131 350.709 493.131C349.935 493.131 349.341 493.338 348.927 493.752C348.513 494.148 348.306 494.742 348.306 495.534C348.306 496.182 348.414 496.731 348.63 497.181C348.846 497.613 349.215 498.054 349.737 498.504L353.436 501.744C354.39 502.59 355.146 503.508 355.704 504.498C356.28 505.488 356.568 506.613 356.568 507.873C356.568 509.475 356.082 510.744 355.11 511.68C354.138 512.616 352.878 513.084 351.33 513.084ZM362.849 513.057C360.599 513.057 359.474 511.815 359.474 509.331V499.152H357.827V497.235H359.474V492.672H362.363V497.235H364.874V499.152H362.363V509.142C362.363 509.772 362.462 510.213 362.66 510.465C362.858 510.717 363.236 510.843 363.794 510.843C364.154 510.843 364.505 510.816 364.847 510.762V512.895C364.127 513.003 363.461 513.057 362.849 513.057ZM371.29 513.057C369.634 513.057 368.455 512.571 367.753 511.599C367.069 510.609 366.727 509.178 366.727 507.306V502.77C366.727 500.898 367.069 499.476 367.753 498.504C368.455 497.514 369.634 497.019 371.29 497.019C372.928 497.019 374.089 497.514 374.773 498.504C375.475 499.476 375.826 500.898 375.826 502.77V507.306C375.826 509.178 375.475 510.609 374.773 511.599C374.089 512.571 372.928 513.057 371.29 513.057ZM371.29 510.924C371.812 510.924 372.19 510.771 372.424 510.465C372.658 510.159 372.802 509.781 372.856 509.331C372.91 508.881 372.937 508.269 372.937 507.495V502.608C372.937 501.834 372.91 501.222 372.856 500.772C372.802 500.304 372.658 499.917 372.424 499.611C372.19 499.305 371.812 499.152 371.29 499.152C370.768 499.152 370.381 499.305 370.129 499.611C369.895 499.917 369.751 500.304 369.697 500.772C369.643 501.222 369.616 501.834 369.616 502.608V507.495C369.616 508.269 369.643 508.881 369.697 509.331C369.751 509.781 369.895 510.159 370.129 510.465C370.381 510.771 370.768 510.924 371.29 510.924ZM378.548 497.235H381.437V499.449C381.977 498.567 382.526 497.946 383.084 497.586C383.66 497.226 384.263 497.046 384.893 497.046C385.055 497.046 385.208 497.055 385.352 497.073V500.259C384.776 500.043 384.245 499.935 383.759 499.935C383.291 499.935 382.868 500.052 382.49 500.286C382.13 500.502 381.779 500.889 381.437 501.447V512.841H378.548V497.235ZM391.462 513.057C390.256 513.057 389.32 512.832 388.654 512.382C387.988 511.914 387.52 511.23 387.25 510.33C386.98 509.43 386.845 508.26 386.845 506.82V503.256C386.845 501.096 387.178 499.521 387.844 498.531C388.528 497.523 389.734 497.019 391.462 497.019C392.722 497.019 393.667 497.28 394.297 497.802C394.945 498.324 395.368 499.062 395.566 500.016C395.782 500.952 395.89 502.221 395.89 503.823V505.092H389.734V508.224C389.734 509.178 389.869 509.871 390.139 510.303C390.427 510.717 390.877 510.924 391.489 510.924C392.101 510.924 392.515 510.717 392.731 510.303C392.947 509.871 393.055 509.223 393.055 508.359V507.414H395.863V508.008C395.863 509.646 395.512 510.897 394.81 511.761C394.108 512.625 392.992 513.057 391.462 513.057ZM393.055 503.526V502.122C393.055 501.06 392.947 500.304 392.731 499.854C392.533 499.386 392.101 499.152 391.435 499.152C390.967 499.152 390.607 499.26 390.355 499.476C390.121 499.692 389.959 500.052 389.869 500.556C389.779 501.042 389.734 501.753 389.734 502.689V503.526H393.055Z" fill="#222222"/>
<path d="M150.103 488.967C150.103 483.444 154.58 478.967 160.103 478.967H229.112V538.955H160.103C154.58 538.955 150.103 534.478 150.103 528.955V488.967Z" fill="#2C76E6"/>
<rect x="157.364" y="482.716" width="66.1963" height="52.4893" rx="10" fill="white"/>
<path d="M203.318 493.75V496.935C203.318 499.743 195.354 502.033 185.537 502.033C175.72 502.033 167.755 499.743 167.755 496.935V493.75C167.755 490.942 175.72 488.652 185.537 488.652C195.354 488.652 203.318 490.942 203.318 493.75ZM203.318 500.918V508.085C203.318 510.893 195.354 513.183 185.537 513.183C175.72 513.183 167.755 510.893 167.755 508.085V500.918C171.576 503.227 178.568 504.302 185.537 504.302C192.506 504.302 199.498 503.227 203.318 500.918ZM203.318 512.068V519.236C203.318 522.043 195.354 524.333 185.537 524.333C175.72 524.333 167.755 522.043 167.755 519.236V512.068C171.576 514.377 178.568 515.452 185.537 515.452C192.506 515.452 199.498 514.377 203.318 512.068Z" fill="#2055A6"/>
<path fill-rule="evenodd" clip-rule="evenodd" d="M208.882 515.818H205.559C205.007 515.818 204.562 516.208 204.562 516.693V522.818H200.916C200.177 522.818 199.807 523.602 200.33 524.062L206.656 529.611C206.967 529.884 207.478 529.884 207.789 529.611L214.106 524.062C214.629 523.602 214.26 522.818 213.521 522.818H209.878V516.693C209.878 516.208 209.434 515.818 208.882 515.818Z" fill="#2055A6"/>
<path d="M149 565.482C149 559.959 153.477 555.482 159 555.482H228.008V615.47H159C153.477 615.47 149 610.993 149 605.47V565.482Z" fill="#DEBF62"/>
<path d="M228.009 555.482L263.456 548.46V608.268L228.009 615.47V555.482Z" fill="#A68F49"/>
<path d="M263.188 548.702H527.268V608.462H263.188V548.702Z" fill="#DEBF62"/>
<path d="M525.764 548.865H539.704C556.166 548.865 569.511 562.21 569.511 578.672V578.672C569.511 595.134 556.166 608.478 539.704 608.478H525.764V548.865Z" fill="#DEBF62"/>
<rect x="156.26" y="559.232" width="66.1963" height="52.4893" rx="10" fill="white"/>
<path d="M295.781 568.034H300.533C302.891 568.034 304.556 568.574 305.528 569.654C306.518 570.734 307.013 572.417 307.013 574.703V582.749C307.013 585.161 306.527 586.961 305.555 588.149C304.601 589.319 303.008 589.904 300.776 589.904H295.781V568.034ZM300.56 587.717C301.622 587.717 302.387 587.51 302.855 587.096C303.341 586.682 303.638 586.124 303.746 585.422C303.872 584.702 303.935 583.622 303.935 582.182V575.081C303.935 573.839 303.854 572.894 303.692 572.246C303.548 571.58 303.233 571.094 302.747 570.788C302.261 570.464 301.505 570.302 300.479 570.302H298.832V587.717H300.56ZM312.584 590.12C311.99 590.12 311.45 589.949 310.964 589.607C310.496 589.265 310.127 588.815 309.857 588.257C309.587 587.699 309.452 587.114 309.452 586.502C309.452 585.278 309.713 584.288 310.235 583.532C310.757 582.758 311.423 582.146 312.233 581.696C313.043 581.246 314.168 580.733 315.608 580.157V579.05C315.608 578.024 315.5 577.304 315.284 576.89C315.086 576.458 314.672 576.242 314.042 576.242C312.944 576.242 312.395 576.98 312.395 578.456V579.239L309.533 579.131C309.569 577.403 309.965 576.134 310.721 575.324C311.477 574.496 312.647 574.082 314.231 574.082C315.725 574.082 316.805 574.496 317.471 575.324C318.155 576.134 318.497 577.367 318.497 579.023V586.151C318.497 587.321 318.587 588.572 318.767 589.904H316.121C315.923 588.878 315.797 588.113 315.743 587.609C315.527 588.311 315.149 588.905 314.609 589.391C314.087 589.877 313.412 590.12 312.584 590.12ZM313.718 587.636C314.096 587.636 314.465 587.492 314.825 587.204C315.185 586.898 315.446 586.61 315.608 586.34V581.912C314.834 582.344 314.231 582.722 313.799 583.046C313.385 583.352 313.034 583.712 312.746 584.126C312.476 584.54 312.341 585.035 312.341 585.611C312.341 586.259 312.458 586.763 312.692 587.123C312.926 587.465 313.268 587.636 313.718 587.636ZM325.219 590.12C322.969 590.12 321.844 588.878 321.844 586.394V576.215H320.197V574.298H321.844V569.735H324.733V574.298H327.244V576.215H324.733V586.205C324.733 586.835 324.832 587.276 325.03 587.528C325.228 587.78 325.606 587.906 326.164 587.906C326.524 587.906 326.875 587.879 327.217 587.825V589.958C326.497 590.066 325.831 590.12 325.219 590.12ZM332.175 590.12C331.581 590.12 331.041 589.949 330.555 589.607C330.087 589.265 329.718 588.815 329.448 588.257C329.178 587.699 329.043 587.114 329.043 586.502C329.043 585.278 329.304 584.288 329.826 583.532C330.348 582.758 331.014 582.146 331.824 581.696C332.634 581.246 333.759 580.733 335.199 580.157V579.05C335.199 578.024 335.091 577.304 334.875 576.89C334.677 576.458 334.263 576.242 333.633 576.242C332.535 576.242 331.986 576.98 331.986 578.456V579.239L329.124 579.131C329.16 577.403 329.556 576.134 330.312 575.324C331.068 574.496 332.238 574.082 333.822 574.082C335.316 574.082 336.396 574.496 337.062 575.324C337.746 576.134 338.088 577.367 338.088 579.023V586.151C338.088 587.321 338.178 588.572 338.358 589.904H335.712C335.514 588.878 335.388 588.113 335.334 587.609C335.118 588.311 334.74 588.905 334.2 589.391C333.678 589.877 333.003 590.12 332.175 590.12ZM333.309 587.636C333.687 587.636 334.056 587.492 334.416 587.204C334.776 586.898 335.037 586.61 335.199 586.34V581.912C334.425 582.344 333.822 582.722 333.39 583.046C332.976 583.352 332.625 583.712 332.337 584.126C332.067 584.54 331.932 585.035 331.932 585.611C331.932 586.259 332.049 586.763 332.283 587.123C332.517 587.465 332.859 587.636 333.309 587.636ZM350.732 568.034H353.675L358.346 589.904H355.457L354.458 584.396H350.003L348.95 589.904H346.088L350.732 568.034ZM354.053 582.209L352.217 572.354L350.408 582.209H354.053ZM360.322 574.298H363.211V575.837C364.453 574.667 365.722 574.082 367.018 574.082C367.864 574.082 368.467 574.388 368.827 575C369.187 575.612 369.367 576.368 369.367 577.268V589.904H366.478V578.105C366.478 577.511 366.388 577.07 366.208 576.782C366.028 576.494 365.704 576.35 365.236 576.35C364.66 576.35 363.985 576.674 363.211 577.322V589.904H360.322V574.298ZM374.995 590.12C374.401 590.12 373.861 589.949 373.375 589.607C372.907 589.265 372.538 588.815 372.268 588.257C371.998 587.699 371.863 587.114 371.863 586.502C371.863 585.278 372.124 584.288 372.646 583.532C373.168 582.758 373.834 582.146 374.644 581.696C375.454 581.246 376.579 580.733 378.019 580.157V579.05C378.019 578.024 377.911 577.304 377.695 576.89C377.497 576.458 377.083 576.242 376.453 576.242C375.355 576.242 374.806 576.98 374.806 578.456V579.239L371.944 579.131C371.98 577.403 372.376 576.134 373.132 575.324C373.888 574.496 375.058 574.082 376.642 574.082C378.136 574.082 379.216 574.496 379.882 575.324C380.566 576.134 380.908 577.367 380.908 579.023V586.151C380.908 587.321 380.998 588.572 381.178 589.904H378.532C378.334 588.878 378.208 588.113 378.154 587.609C377.938 588.311 377.56 588.905 377.02 589.391C376.498 589.877 375.823 590.12 374.995 590.12ZM376.129 587.636C376.507 587.636 376.876 587.492 377.236 587.204C377.596 586.898 377.857 586.61 378.019 586.34V581.912C377.245 582.344 376.642 582.722 376.21 583.046C375.796 583.352 375.445 583.712 375.157 584.126C374.887 584.54 374.752 585.035 374.752 585.611C374.752 586.259 374.869 586.763 375.103 587.123C375.337 587.465 375.679 587.636 376.129 587.636ZM383.953 568.034H386.842V589.904H383.953V568.034ZM389.61 591.605C390.69 591.605 391.428 591.524 391.824 591.362C392.238 591.2 392.445 590.894 392.445 590.444C392.445 590.228 392.247 589.274 391.851 587.582L388.719 574.298H391.635L393.741 585.962L395.766 574.298H398.682L394.956 590.768C394.704 591.866 394.173 592.649 393.363 593.117C392.553 593.585 391.419 593.819 389.961 593.819H389.61V591.605ZM404.044 590.12C402.784 590.12 401.758 589.724 400.966 588.932C400.192 588.14 399.751 587.078 399.643 585.746L402.046 585.017C402.19 586.025 402.433 586.772 402.775 587.258C403.135 587.744 403.639 587.987 404.287 587.987C404.791 587.987 405.178 587.843 405.448 587.555C405.736 587.249 405.88 586.844 405.88 586.34C405.88 585.89 405.781 585.485 405.583 585.125C405.385 584.765 405.061 584.396 404.611 584.018L401.938 581.723C401.326 581.201 400.849 580.652 400.507 580.076C400.183 579.482 400.021 578.762 400.021 577.916C400.021 576.71 400.381 575.774 401.101 575.108C401.821 574.424 402.802 574.082 404.044 574.082C405.232 574.082 406.159 574.469 406.825 575.243C407.509 575.999 407.905 576.98 408.013 578.186L406.069 578.915C405.943 578.033 405.736 577.367 405.448 576.917C405.16 576.449 404.728 576.215 404.152 576.215C403.684 576.215 403.306 576.368 403.018 576.674C402.748 576.98 402.613 577.358 402.613 577.808C402.613 578.384 402.874 578.906 403.396 579.374L406.15 581.912C406.852 582.56 407.392 583.199 407.77 583.829C408.166 584.459 408.364 585.224 408.364 586.124C408.364 587.42 407.977 588.41 407.203 589.094C406.429 589.778 405.376 590.12 404.044 590.12ZM410.714 568.952H413.603V571.976H410.714V568.952ZM410.714 574.298H413.603V589.904H410.714V574.298ZM420.313 590.12C419.053 590.12 418.027 589.724 417.235 588.932C416.461 588.14 416.02 587.078 415.912 585.746L418.315 585.017C418.459 586.025 418.702 586.772 419.044 587.258C419.404 587.744 419.908 587.987 420.556 587.987C421.06 587.987 421.447 587.843 421.717 587.555C422.005 587.249 422.149 586.844 422.149 586.34C422.149 585.89 422.05 585.485 421.852 585.125C421.654 584.765 421.33 584.396 420.88 584.018L418.207 581.723C417.595 581.201 417.118 580.652 416.776 580.076C416.452 579.482 416.29 578.762 416.29 577.916C416.29 576.71 416.65 575.774 417.37 575.108C418.09 574.424 419.071 574.082 420.313 574.082C421.501 574.082 422.428 574.469 423.094 575.243C423.778 575.999 424.174 576.98 424.282 578.186L422.338 578.915C422.212 578.033 422.005 577.367 421.717 576.917C421.429 576.449 420.997 576.215 420.421 576.215C419.953 576.215 419.575 576.368 419.287 576.674C419.017 576.98 418.882 577.358 418.882 577.808C418.882 578.384 419.143 578.906 419.665 579.374L422.419 581.912C423.121 582.56 423.661 583.199 424.039 583.829C424.435 584.459 424.633 585.224 424.633 586.124C424.633 587.42 424.246 588.41 423.472 589.094C422.698 589.778 421.645 590.12 420.313 590.12Z" fill="#222222"/>
<path d="M202.767 570.265V573.451C202.767 576.258 194.802 578.548 184.985 578.548C175.168 578.548 167.204 576.258 167.204 573.451V570.265C167.204 567.458 175.168 565.168 184.985 565.168C194.802 565.168 202.767 567.458 202.767 570.265ZM202.767 577.433V584.601C202.767 587.408 194.802 589.698 184.985 589.698C175.168 589.698 167.204 587.408 167.204 584.601V577.433C171.024 579.743 178.016 580.818 184.985 580.818C191.954 580.818 198.946 579.743 202.767 577.433ZM202.767 588.583V595.751C202.767 598.558 194.802 600.848 184.985 600.848C175.168 600.848 167.204 598.558 167.204 595.751V588.583C171.024 590.893 178.016 591.968 184.985 591.968C191.954 591.968 198.946 590.893 202.767 588.583Z" fill="#A68F49"/>
<path d="M214.752 602.76H208.255L212.582 606.646C212.747 606.794 213.02 606.807 213.19 606.663C214.249 605.766 214.978 604.557 215.192 603.199C215.229 602.966 215.014 602.76 214.752 602.76V602.76ZM214.319 601.166C214.093 598.228 211.48 595.881 208.209 595.678C207.959 595.662 207.749 595.852 207.749 596.076V601.579H213.875C214.126 601.579 214.336 601.39 214.319 601.166ZM206.435 602.76V596.924C206.435 596.689 206.205 596.496 205.946 596.529C202.684 596.943 200.19 599.504 200.306 602.572C200.425 605.723 203.446 608.307 206.956 608.268C208.336 608.252 209.611 607.853 210.659 607.185C210.875 607.047 210.89 606.761 210.702 606.593L206.435 602.76Z" fill="#A68F49"/>
<path d="M229.112 633.451L264.559 622.797V683.573L229.112 693.438V633.451Z" fill="#A63957"/>
<path fill-rule="evenodd" clip-rule="evenodd" d="M569.897 623.765V624.695L554.451 637.71L569.897 654.074V656.073L554.451 667.686L569.897 682.288V683.331H264.292V623.765H569.897Z" fill="#F1537F"/>
<path d="M295.229 643.581H299.63C301.844 643.581 303.464 644.04 304.49 644.958C305.534 645.858 306.056 647.334 306.056 649.386C306.056 652.194 305.156 653.895 303.356 654.489L306.461 665.451H303.518L300.656 655.191H298.28V665.451H295.229V643.581ZM299.441 653.004C300.755 653.004 301.691 652.743 302.249 652.221C302.825 651.699 303.113 650.754 303.113 649.386C303.113 648.486 303.014 647.784 302.816 647.28C302.618 646.758 302.267 646.38 301.763 646.146C301.259 645.894 300.548 645.768 299.63 645.768H298.28V653.004H299.441ZM313.307 665.667C312.101 665.667 311.165 665.442 310.499 664.992C309.833 664.524 309.365 663.84 309.095 662.94C308.825 662.04 308.69 660.87 308.69 659.43V655.866C308.69 653.706 309.023 652.131 309.689 651.141C310.373 650.133 311.579 649.629 313.307 649.629C314.567 649.629 315.512 649.89 316.142 650.412C316.79 650.934 317.213 651.672 317.411 652.626C317.627 653.562 317.735 654.831 317.735 656.433V657.702H311.579V660.834C311.579 661.788 311.714 662.481 311.984 662.913C312.272 663.327 312.722 663.534 313.334 663.534C313.946 663.534 314.36 663.327 314.576 662.913C314.792 662.481 314.9 661.833 314.9 660.969V660.024H317.708V660.618C317.708 662.256 317.357 663.507 316.655 664.371C315.953 665.235 314.837 665.667 313.307 665.667ZM314.9 656.136V654.732C314.9 653.67 314.792 652.914 314.576 652.464C314.378 651.996 313.946 651.762 313.28 651.762C312.812 651.762 312.452 651.87 312.2 652.086C311.966 652.302 311.804 652.662 311.714 653.166C311.624 653.652 311.579 654.363 311.579 655.299V656.136H314.9ZM320.351 649.845H323.24V651.087C324.086 650.115 325.076 649.629 326.21 649.629C327.632 649.629 328.577 650.241 329.045 651.465C329.531 652.671 329.774 654.012 329.774 655.488V659.268C329.774 661.176 329.477 662.724 328.883 663.912C328.307 665.082 327.308 665.667 325.886 665.667C324.968 665.667 324.086 665.208 323.24 664.29V670.581H320.351V649.845ZM325.319 663.399C325.985 663.399 326.408 663.066 326.588 662.4C326.786 661.716 326.885 660.672 326.885 659.268V655.488C326.885 654.336 326.777 653.454 326.561 652.842C326.345 652.212 325.895 651.897 325.211 651.897C324.545 651.897 323.888 652.167 323.24 652.707V662.697C323.87 663.165 324.563 663.399 325.319 663.399ZM336.694 665.667C335.038 665.667 333.859 665.181 333.157 664.209C332.473 663.219 332.131 661.788 332.131 659.916V655.38C332.131 653.508 332.473 652.086 333.157 651.114C333.859 650.124 335.038 649.629 336.694 649.629C338.332 649.629 339.493 650.124 340.177 651.114C340.879 652.086 341.23 653.508 341.23 655.38V659.916C341.23 661.788 340.879 663.219 340.177 664.209C339.493 665.181 338.332 665.667 336.694 665.667ZM336.694 663.534C337.216 663.534 337.594 663.381 337.828 663.075C338.062 662.769 338.206 662.391 338.26 661.941C338.314 661.491 338.341 660.879 338.341 660.105V655.218C338.341 654.444 338.314 653.832 338.26 653.382C338.206 652.914 338.062 652.527 337.828 652.221C337.594 651.915 337.216 651.762 336.694 651.762C336.172 651.762 335.785 651.915 335.533 652.221C335.299 652.527 335.155 652.914 335.101 653.382C335.047 653.832 335.02 654.444 335.02 655.218V660.105C335.02 660.879 335.047 661.491 335.101 661.941C335.155 662.391 335.299 662.769 335.533 663.075C335.785 663.381 336.172 663.534 336.694 663.534ZM343.952 649.845H346.841V652.059C347.381 651.177 347.93 650.556 348.488 650.196C349.064 649.836 349.667 649.656 350.297 649.656C350.459 649.656 350.612 649.665 350.756 649.683V652.869C350.18 652.653 349.649 652.545 349.163 652.545C348.695 652.545 348.272 652.662 347.894 652.896C347.534 653.112 347.183 653.499 346.841 654.057V665.451H343.952V649.845ZM356.704 665.667C354.454 665.667 353.329 664.425 353.329 661.941V651.762H351.682V649.845H353.329V645.282H356.218V649.845H358.729V651.762H356.218V661.752C356.218 662.382 356.317 662.823 356.515 663.075C356.713 663.327 357.091 663.453 357.649 663.453C358.009 663.453 358.36 663.426 358.702 663.372V665.505C357.982 665.613 357.316 665.667 356.704 665.667ZM361.04 644.499H363.929V647.523H361.04V644.499ZM361.04 649.845H363.929V665.451H361.04V649.845ZM367.021 649.845H369.91V651.384C371.152 650.214 372.421 649.629 373.717 649.629C374.563 649.629 375.166 649.935 375.526 650.547C375.886 651.159 376.066 651.915 376.066 652.815V665.451H373.177V653.652C373.177 653.058 373.087 652.617 372.907 652.329C372.727 652.041 372.403 651.897 371.935 651.897C371.359 651.897 370.684 652.221 369.91 652.869V665.451H367.021V649.845ZM382.936 670.284C381.424 670.284 380.218 670.041 379.318 669.555C378.418 669.087 377.968 668.349 377.968 667.341C377.968 666.657 378.175 666.063 378.589 665.559C379.021 665.055 379.561 664.65 380.209 664.344C379.723 664.2 379.345 663.975 379.075 663.669C378.823 663.363 378.697 663.03 378.697 662.67C378.697 662.13 378.832 661.662 379.102 661.266C379.372 660.87 379.813 660.393 380.425 659.835C379.813 659.367 379.354 658.782 379.048 658.08C378.76 657.36 378.616 656.397 378.616 655.191C378.616 653.373 378.985 651.996 379.723 651.06C380.479 650.106 381.577 649.629 383.017 649.629C383.845 649.629 384.52 649.773 385.042 650.061C385.564 650.349 385.96 650.781 386.23 651.357C386.356 651.159 386.617 650.898 387.013 650.574C387.427 650.232 387.868 649.953 388.336 649.737L388.768 649.548L389.497 651.411C389.137 651.483 388.633 651.636 387.985 651.87C387.355 652.104 386.977 652.284 386.851 652.41C386.977 652.734 387.085 653.184 387.175 653.76C387.283 654.336 387.337 654.84 387.337 655.272C387.337 656.982 387.004 658.314 386.338 659.268C385.672 660.204 384.565 660.672 383.017 660.672C382.531 660.672 382.036 660.609 381.532 660.483C381.19 660.987 381.019 661.383 381.019 661.671C381.019 661.869 381.118 662.031 381.316 662.157C381.532 662.265 381.865 662.337 382.315 662.373L384.745 662.589C385.969 662.697 386.878 663.066 387.472 663.696C388.066 664.326 388.363 665.226 388.363 666.396C388.363 668.988 386.554 670.284 382.936 670.284ZM383.017 658.647C383.791 658.647 384.295 658.377 384.529 657.837C384.763 657.297 384.88 656.415 384.88 655.191C384.88 653.949 384.763 653.049 384.529 652.491C384.295 651.915 383.8 651.627 383.044 651.627C382.288 651.627 381.775 651.915 381.505 652.491C381.253 653.049 381.127 653.949 381.127 655.191C381.127 656.307 381.253 657.162 381.505 657.756C381.775 658.35 382.279 658.647 383.017 658.647ZM383.152 668.016C384.178 668.016 384.934 667.89 385.42 667.638C385.906 667.404 386.149 667.017 386.149 666.477C386.149 665.973 385.996 665.604 385.69 665.37C385.384 665.118 384.826 664.956 384.016 664.884L381.559 664.668C381.181 665.046 380.893 665.379 380.695 665.667C380.497 665.955 380.398 666.27 380.398 666.612C380.398 667.098 380.596 667.449 380.992 667.665C381.406 667.899 382.126 668.016 383.152 668.016Z" fill="#222222"/>
<path d="M150.103 643.451C150.103 637.928 154.58 633.451 160.103 633.451H229.112V693.438H160.103C154.58 693.438 150.103 688.961 150.103 683.438V643.451Z" fill="#F1537F"/>
<rect x="157.364" y="637.2" width="66.1963" height="52.4893" rx="10" fill="white"/>
<path d="M200.963 654.78H198.187C197.516 654.78 196.973 655.257 196.973 655.846C196.973 656.435 197.516 656.912 198.187 656.912H200.963C201.634 656.912 202.177 656.435 202.177 655.846C202.177 655.257 201.634 654.78 200.963 654.78Z" fill="#A63957"/>
<path d="M200.963 661.175H198.187C197.516 661.175 196.973 661.652 196.973 662.241C196.973 662.829 197.516 663.306 198.187 663.306H200.963C201.634 663.306 202.177 662.829 202.177 662.241C202.177 661.652 201.634 661.175 200.963 661.175Z" fill="#A63957"/>
<path d="M200.963 667.569H198.187C197.516 667.569 196.973 668.047 196.973 668.635V668.635C196.973 669.224 197.516 669.701 198.187 669.701H200.963C201.634 669.701 202.177 669.224 202.177 668.635V668.635C202.177 668.047 201.634 667.569 200.963 667.569Z" fill="#A63957"/>
<path d="M200.963 673.964H198.187C197.516 673.964 196.973 674.441 196.973 675.03C196.973 675.619 197.516 676.096 198.187 676.096H200.963C201.634 676.096 202.177 675.619 202.177 675.03C202.177 674.441 201.634 673.964 200.963 673.964Z" fill="#A63957"/>
<path d="M192.446 654.78H174.529C173.858 654.78 173.315 655.257 173.315 655.846C173.315 656.435 173.858 656.912 174.529 656.912H192.446C193.117 656.912 193.66 656.435 193.66 655.846C193.66 655.257 193.117 654.78 192.446 654.78Z" fill="#A63957"/>
<path d="M192.446 661.175H174.529C173.858 661.175 173.315 661.652 173.315 662.241C173.315 662.829 173.858 663.306 174.529 663.306H192.446C193.117 663.306 193.66 662.829 193.66 662.241C193.66 661.652 193.117 661.175 192.446 661.175Z" fill="#A63957"/>
<path d="M192.446 667.569H174.529C173.858 667.569 173.315 668.047 173.315 668.635V668.635C173.315 669.224 173.858 669.701 174.529 669.701H192.446C193.117 669.701 193.66 669.224 193.66 668.635C193.66 668.047 193.117 667.569 192.446 667.569Z" fill="#A63957"/>
<path d="M192.446 673.964H174.529C173.858 673.964 173.315 674.441 173.315 675.03C173.315 675.619 173.858 676.096 174.529 676.096H192.446C193.117 676.096 193.66 675.619 193.66 675.03C193.66 674.441 193.117 673.964 192.446 673.964Z" fill="#A63957"/>
<path fill-rule="evenodd" clip-rule="evenodd" d="M194.321 644.336H203.715C206.187 644.336 208.21 646.158 208.21 648.386V660.585L205.829 662.3L205.726 646.68H199.22V650.517H176.745V646.68H170.476V682.49H205.962L205.913 674.971L208.21 673.499V680.785C208.21 683.012 206.187 684.835 203.715 684.835H172.25C169.778 684.835 167.755 683.012 167.755 680.785V648.386C167.755 646.158 169.778 644.336 172.25 644.336H181.645C182.589 641.987 185.061 640.286 187.983 640.286C190.904 640.286 193.377 641.987 194.321 644.336ZM190.23 646.361C190.23 645.247 189.219 644.336 187.983 644.336C186.747 644.336 185.735 645.247 185.735 646.361C185.735 647.474 186.747 648.386 187.983 648.386C189.219 648.386 190.23 647.474 190.23 646.361Z" fill="#A63957"/>
<path fill-rule="evenodd" clip-rule="evenodd" d="M181.618 644.227C182.452 641.641 185.165 639.746 188.382 639.746C191.599 639.746 194.311 641.641 195.146 644.227H199.883V650.389H176.242V644.227H181.618ZM186.716 644.623C186.175 644.98 185.826 645.548 185.826 646.188C185.826 647.271 186.827 648.149 188.062 648.149C189.297 648.149 190.299 647.271 190.299 646.188C190.299 645.187 189.442 644.361 188.337 644.242C187.783 644.286 187.24 644.426 186.716 644.623Z" fill="#A63957"/>
<path d="M218.11 662.235L216.14 660.507C215.526 659.967 214.53 659.967 213.916 660.507L212.063 662.133L216.257 665.815L218.11 664.188C218.724 663.649 218.724 662.775 218.11 662.235V662.235ZM210.024 661.645C209.513 661.196 208.683 661.196 208.171 661.645L204.28 665.061C204.075 665.241 204.075 665.532 204.28 665.712L205.021 666.363C205.226 666.543 205.558 666.543 205.763 666.363L209.099 663.434L209.84 664.085L204.875 668.444C203.155 669.953 202.071 671.932 201.802 674.054L201.801 674.061C201.746 674.5 202.169 674.872 202.669 674.823C205.09 674.589 207.347 673.637 209.069 672.126L215.516 666.466L212.804 664.085L210.024 661.645V661.645Z" fill="#A63957"/>
<defs>
<filter id="filter0_d_25_27" x="257" y="109" width="19" height="579" filterUnits="userSpaceOnUse" color-interpolation-filters="sRGB">
<feFlood flood-opacity="0" result="BackgroundImageFix"/>
<feColorMatrix in="SourceAlpha" type="matrix" values="0 0 0 0 0 0 0 0 0 0 0 0 0 0 0 0 0 0 127 0" result="hardAlpha"/>
<feMorphology radius="4" operator="dilate" in="SourceAlpha" result="effect1_dropShadow_25_27"/>
<feOffset dx="5"/>
<feGaussianBlur stdDeviation="2.5"/>
<feComposite in2="hardAlpha" operator="out"/>
<feColorMatrix type="matrix" values="0 0 0 0 0 0 0 0 0 0 0 0 0 0 0 0 0 0 0.2 0"/>
<feBlend mode="normal" in2="BackgroundImageFix" result="effect1_dropShadow_25_27"/>
<feBlend mode="normal" in="SourceGraphic" in2="effect1_dropShadow_25_27" result="shape"/>
</filter>
<clipPath id="clip0_25_27">
<rect width="720" height="720" fill="white"/>
</clipPath>
<clipPath id="clip1_25_27">
<rect width="47.9921" height="42.1319" fill="white" transform="translate(166.101 102.201)"/>
</clipPath>
</defs>
</svg>
